<?xml version="1.0" encoding="UTF-8"?>
<svg xmlns="http://www.w3.org/2000/svg" xmlns:xlink="http://www.w3.org/1999/xlink" width="863.25pt" height="863.249991pt" viewBox="0 0 863.25 863.249991" version="1.2">
<defs>
<clipPath id="clip1">
  <path d="M 114 0 L 749 0 L 749 862.5 L 114 862.5 Z M 114 0 "/>
</clipPath>
</defs>
<g id="surface1">
<g clip-path="url(#clip1)" clip-rule="nonzero">
<path style=" stroke:none;fill-rule:nonzero;fill:rgb(10.198975%,45.098877%,90.979004%);fill-opacity:1;" d="M 431.796875 0 C 256.722656 0 114.597656 142.097656 114.597656 317.003906 C 114.597656 390.082031 141.191406 455.433594 180.308594 510.324219 C 431.796875 862.5 431.796875 862.5 431.796875 862.5 C 431.796875 862.5 431.796875 862.5 683.3125 510.28125 C 722.402344 455.410156 748.960938 389.894531 748.960938 317.003906 C 748.96875 142.097656 607.042969 0 431.796875 0 Z M 431.796875 0 "/>
</g>
<path style=" stroke:none;fill-rule:nonzero;fill:rgb(100%,100%,100%);fill-opacity:1;" d="M 629.792969 317.003906 C 629.792969 426.53125 541.238281 514.9375 431.796875 514.9375 C 322.507812 514.9375 233.773438 426.53125 233.773438 317.003906 C 233.773438 207.757812 322.507812 119.101562 431.796875 119.101562 C 541.246094 119.101562 629.792969 207.757812 629.792969 317.003906 Z M 629.792969 317.003906 "/>
</g>
</svg>
