<?xml version="1.0" encoding="UTF-8"?>
<svg xmlns="http://www.w3.org/2000/svg" xmlns:xlink="http://www.w3.org/1999/xlink" width="863.25pt" height="863.249991pt" viewBox="0 0 863.25 863.249991" version="1.2">
<defs>
<clipPath id="clip1">
  <path d="M 106.8125 73 L 529 73 L 529 670 L 106.8125 670 Z M 106.8125 73 "/>
</clipPath>
<clipPath id="clip2">
  <path d="M 106.8125 702 L 529 702 L 529 789 L 106.8125 789 Z M 106.8125 702 "/>
</clipPath>
</defs>
<g id="surface1">
<g clip-path="url(#clip1)" clip-rule="nonzero">
<path style=" stroke:none;fill-rule:nonzero;fill:rgb(10.198975%,45.098877%,90.979004%);fill-opacity:1;" d="M 476.34375 73.105469 L 158.148438 73.105469 C 156.421875 73.117188 154.707031 73.214844 152.992188 73.394531 C 151.277344 73.574219 149.578125 73.839844 147.890625 74.1875 C 146.203125 74.535156 144.539062 74.964844 142.894531 75.476562 C 141.25 75.988281 139.632812 76.582031 138.046875 77.253906 C 136.460938 77.921875 134.910156 78.671875 133.394531 79.496094 C 131.882812 80.320312 130.414062 81.214844 128.988281 82.183594 C 127.5625 83.152344 126.1875 84.1875 124.867188 85.289062 C 123.542969 86.394531 122.277344 87.558594 121.070312 88.785156 C 119.859375 90.015625 118.714844 91.300781 117.632812 92.640625 C 116.550781 93.980469 115.535156 95.371094 114.589844 96.8125 C 113.644531 98.25 112.773438 99.734375 111.972656 101.261719 C 111.175781 102.789062 110.453125 104.347656 109.804688 105.945312 C 109.160156 107.542969 108.59375 109.167969 108.109375 110.820312 C 107.621094 112.476562 107.21875 114.148438 106.898438 115.839844 C 106.578125 117.535156 106.339844 119.238281 106.183594 120.953125 C 106.03125 122.671875 105.960938 124.390625 105.976562 126.113281 L 105.976562 669.460938 L 528.476562 669.460938 L 528.476562 126.113281 C 528.492188 124.390625 528.421875 122.671875 528.269531 120.957031 C 528.113281 119.242188 527.878906 117.539062 527.554688 115.84375 C 527.234375 114.152344 526.832031 112.480469 526.347656 110.828125 C 525.859375 109.175781 525.296875 107.550781 524.652344 105.953125 C 524.003906 104.359375 523.285156 102.796875 522.484375 101.269531 C 521.6875 99.746094 520.8125 98.261719 519.871094 96.824219 C 518.925781 95.382812 517.910156 93.992188 516.832031 92.652344 C 515.75 91.3125 514.605469 90.027344 513.398438 88.800781 C 512.191406 87.570312 510.925781 86.40625 509.601562 85.304688 C 508.28125 84.199219 506.90625 83.164062 505.484375 82.195312 C 504.058594 81.226562 502.589844 80.332031 501.078125 79.507812 C 499.566406 78.683594 498.019531 77.933594 496.433594 77.261719 C 494.847656 76.589844 493.230469 76 491.589844 75.488281 C 489.945312 74.972656 488.277344 74.542969 486.59375 74.195312 C 484.90625 73.84375 483.207031 73.578125 481.496094 73.398438 C 479.78125 73.214844 478.066406 73.117188 476.34375 73.105469 Z M 469.09375 304.171875 C 469.101562 304.714844 469.085938 305.253906 469.039062 305.796875 C 468.996094 306.335938 468.921875 306.871094 468.824219 307.40625 C 468.726562 307.9375 468.597656 308.464844 468.445312 308.984375 C 468.292969 309.503906 468.117188 310.015625 467.910156 310.519531 C 467.707031 311.019531 467.480469 311.511719 467.226562 311.992188 C 466.972656 312.46875 466.695312 312.933594 466.394531 313.386719 C 466.089844 313.835938 465.769531 314.269531 465.421875 314.6875 C 465.078125 315.109375 464.714844 315.507812 464.328125 315.886719 C 463.941406 316.269531 463.539062 316.628906 463.117188 316.972656 C 462.695312 317.3125 462.257812 317.628906 461.804688 317.925781 C 461.347656 318.222656 460.878906 318.492188 460.398438 318.742188 C 459.917969 318.992188 459.425781 319.214844 458.917969 319.414062 C 458.414062 319.613281 457.902344 319.785156 457.378906 319.929688 C 456.859375 320.078125 456.332031 320.199219 455.796875 320.292969 C 455.261719 320.382812 454.726562 320.449219 454.183594 320.488281 C 453.644531 320.527344 453.101562 320.539062 452.5625 320.523438 L 181.566406 320.523438 C 181.03125 320.53125 180.496094 320.511719 179.960938 320.464844 C 179.429688 320.417969 178.898438 320.347656 178.371094 320.246094 C 177.84375 320.148438 177.324219 320.019531 176.8125 319.867188 C 176.296875 319.714844 175.792969 319.539062 175.296875 319.335938 C 174.800781 319.132812 174.316406 318.90625 173.84375 318.65625 C 173.367188 318.402344 172.910156 318.128906 172.464844 317.832031 C 172.019531 317.535156 171.589844 317.214844 171.175781 316.875 C 170.761719 316.53125 170.367188 316.171875 169.988281 315.792969 C 169.613281 315.410156 169.253906 315.011719 168.917969 314.59375 C 168.582031 314.179688 168.265625 313.746094 167.972656 313.296875 C 167.679688 312.851562 167.40625 312.386719 167.160156 311.914062 C 166.914062 311.4375 166.691406 310.949219 166.492188 310.453125 C 166.292969 309.953125 166.121094 309.449219 165.972656 308.933594 C 165.824219 308.417969 165.703125 307.898438 165.609375 307.371094 C 165.515625 306.84375 165.445312 306.3125 165.40625 305.777344 C 165.363281 305.242188 165.347656 304.707031 165.359375 304.171875 L 165.359375 157.039062 C 165.335938 156.5 165.339844 155.957031 165.375 155.417969 C 165.40625 154.878906 165.464844 154.339844 165.550781 153.804688 C 165.636719 153.273438 165.75 152.742188 165.890625 152.222656 C 166.035156 151.699219 166.199219 151.183594 166.394531 150.679688 C 166.585938 150.171875 166.808594 149.679688 167.050781 149.195312 C 167.296875 148.714844 167.5625 148.242188 167.855469 147.789062 C 168.148438 147.332031 168.464844 146.894531 168.800781 146.46875 C 169.136719 146.046875 169.496094 145.640625 169.875 145.253906 C 170.253906 144.867188 170.652344 144.503906 171.066406 144.15625 C 171.484375 143.8125 171.917969 143.488281 172.367188 143.1875 C 172.816406 142.882812 173.28125 142.605469 173.757812 142.351562 C 174.238281 142.097656 174.726562 141.871094 175.226562 141.667969 C 175.730469 141.464844 176.238281 141.285156 176.757812 141.132812 C 177.277344 140.984375 177.804688 140.859375 178.335938 140.761719 C 178.871094 140.664062 179.40625 140.59375 179.945312 140.550781 C 180.484375 140.507812 181.023438 140.492188 181.566406 140.507812 L 452.523438 140.507812 C 453.070312 140.488281 453.617188 140.496094 454.164062 140.53125 C 454.710938 140.566406 455.25 140.628906 455.792969 140.722656 C 456.332031 140.8125 456.863281 140.933594 457.390625 141.078125 C 457.917969 141.226562 458.4375 141.398438 458.945312 141.601562 C 459.453125 141.800781 459.953125 142.023438 460.4375 142.277344 C 460.925781 142.527344 461.398438 142.804688 461.855469 143.101562 C 462.3125 143.402344 462.753906 143.726562 463.175781 144.070312 C 463.601562 144.414062 464.007812 144.78125 464.394531 145.167969 C 464.78125 145.554688 465.148438 145.960938 465.492188 146.386719 C 465.839844 146.808594 466.160156 147.25 466.460938 147.710938 C 466.761719 148.167969 467.035156 148.640625 467.285156 149.125 C 467.539062 149.609375 467.761719 150.109375 467.964844 150.617188 C 468.164062 151.128906 468.335938 151.644531 468.484375 152.171875 C 468.628906 152.699219 468.75 153.234375 468.839844 153.773438 C 468.933594 154.3125 468.996094 154.855469 469.03125 155.402344 C 469.066406 155.945312 469.078125 156.492188 469.054688 157.039062 Z M 469.09375 304.171875 "/>
</g>
<g clip-path="url(#clip2)" clip-rule="nonzero">
<path style=" stroke:none;fill-rule:nonzero;fill:rgb(10.198975%,45.098877%,90.979004%);fill-opacity:1;" d="M 105.976562 702.527344 L 528.476562 702.527344 L 528.476562 788.386719 L 105.976562 788.386719 Z M 105.976562 702.527344 "/>
</g>
<path style=" stroke:none;fill-rule:nonzero;fill:rgb(10.198975%,45.098877%,90.979004%);fill-opacity:1;" d="M 680.882812 157.003906 L 605.078125 157.003906 C 604.550781 157.003906 604.023438 157.027344 603.496094 157.082031 C 602.96875 157.132812 602.449219 157.207031 601.929688 157.3125 C 601.410156 157.414062 600.898438 157.542969 600.390625 157.695312 C 599.886719 157.847656 599.390625 158.027344 598.898438 158.226562 C 598.410156 158.429688 597.933594 158.65625 597.46875 158.902344 C 597 159.152344 596.546875 159.425781 596.109375 159.71875 C 595.667969 160.011719 595.246094 160.324219 594.835938 160.660156 C 594.425781 160.996094 594.035156 161.351562 593.660156 161.722656 C 593.285156 162.097656 592.933594 162.488281 592.597656 162.898438 C 592.261719 163.304688 591.945312 163.730469 591.652344 164.167969 C 591.359375 164.609375 591.085938 165.0625 590.835938 165.527344 C 590.589844 165.996094 590.363281 166.472656 590.160156 166.960938 C 589.957031 167.449219 589.78125 167.945312 589.625 168.453125 C 589.472656 168.957031 589.34375 169.46875 589.242188 169.988281 C 589.136719 170.507812 589.058594 171.03125 589.007812 171.554688 C 588.957031 172.082031 588.929688 172.609375 588.929688 173.136719 C 588.929688 173.667969 588.957031 174.195312 589.007812 174.722656 C 589.058594 175.246094 589.136719 175.769531 589.242188 176.289062 C 589.34375 176.804688 589.472656 177.320312 589.625 177.824219 C 589.78125 178.332031 589.957031 178.828125 590.160156 179.316406 C 590.363281 179.804688 590.589844 180.28125 590.835938 180.75 C 591.085938 181.214844 591.359375 181.667969 591.652344 182.105469 C 591.945312 182.546875 592.261719 182.96875 592.597656 183.378906 C 592.933594 183.789062 593.285156 184.179688 593.660156 184.550781 C 594.035156 184.925781 594.425781 185.28125 594.835938 185.617188 C 595.246094 185.953125 595.667969 186.265625 596.109375 186.558594 C 596.546875 186.851562 597 187.125 597.46875 187.371094 C 597.933594 187.621094 598.410156 187.847656 598.898438 188.050781 C 599.390625 188.25 599.886719 188.429688 600.390625 188.582031 C 600.898438 188.734375 601.410156 188.863281 601.929688 188.964844 C 602.449219 189.066406 602.96875 189.144531 603.496094 189.195312 C 604.023438 189.246094 604.550781 189.273438 605.078125 189.273438 L 680.882812 189.273438 C 682.222656 189.300781 683.550781 189.394531 684.878906 189.554688 C 686.207031 189.710938 687.523438 189.933594 688.828125 190.21875 C 690.136719 190.503906 691.425781 190.851562 692.695312 191.261719 C 693.96875 191.671875 695.21875 192.140625 696.445312 192.671875 C 697.671875 193.203125 698.871094 193.792969 700.039062 194.4375 C 701.210938 195.085938 702.34375 195.785156 703.445312 196.542969 C 704.550781 197.296875 705.613281 198.105469 706.636719 198.964844 C 707.660156 199.824219 708.640625 200.730469 709.578125 201.683594 C 710.511719 202.640625 711.402344 203.636719 712.242188 204.675781 C 713.082031 205.714844 713.867188 206.792969 714.605469 207.910156 C 715.339844 209.027344 716.019531 210.175781 716.644531 211.355469 C 717.269531 212.539062 717.835938 213.746094 718.34375 214.984375 C 718.851562 216.21875 719.296875 217.476562 719.683594 218.757812 C 720.070312 220.039062 720.394531 221.332031 720.65625 222.644531 C 720.914062 223.957031 721.113281 225.277344 721.246094 226.605469 C 721.378906 227.9375 721.449219 229.269531 721.453125 230.605469 L 721.453125 346.121094 L 687.230469 305.875 L 687.230469 230.605469 C 687.25 230.0625 687.246094 229.519531 687.214844 228.976562 C 687.179688 228.433594 687.117188 227.894531 687.03125 227.355469 C 686.941406 226.820312 686.824219 226.289062 686.683594 225.765625 C 686.539062 225.238281 686.367188 224.722656 686.171875 224.214844 C 685.976562 223.707031 685.753906 223.210938 685.507812 222.726562 C 685.261719 222.242188 684.988281 221.773438 684.691406 221.316406 C 684.398438 220.859375 684.078125 220.417969 683.738281 219.996094 C 683.398438 219.570312 683.035156 219.164062 682.652344 218.777344 C 682.269531 218.390625 681.871094 218.027344 681.449219 217.679688 C 681.03125 217.335938 680.59375 217.011719 680.140625 216.710938 C 679.6875 216.410156 679.21875 216.132812 678.738281 215.878906 C 678.253906 215.628906 677.761719 215.402344 677.257812 215.199219 C 676.75 214.996094 676.238281 214.820312 675.714844 214.671875 C 675.191406 214.523438 674.660156 214.402344 674.125 214.308594 C 673.589844 214.210938 673.050781 214.144531 672.507812 214.105469 C 671.964844 214.066406 671.421875 214.054688 670.878906 214.074219 C 670.359375 214.089844 669.839844 214.132812 669.324219 214.203125 C 668.808594 214.269531 668.300781 214.363281 667.792969 214.484375 C 667.289062 214.605469 666.789062 214.75 666.296875 214.917969 C 665.804688 215.089844 665.324219 215.28125 664.851562 215.5 C 664.378906 215.71875 663.917969 215.960938 663.46875 216.222656 C 663.023438 216.488281 662.589844 216.773438 662.167969 217.078125 C 661.75 217.386719 661.34375 217.714844 660.957031 218.0625 C 660.570312 218.410156 660.203125 218.773438 659.851562 219.160156 C 659.5 219.542969 659.171875 219.945312 658.859375 220.359375 C 658.550781 220.777344 658.261719 221.210938 657.992188 221.65625 C 657.726562 222.101562 657.480469 222.5625 657.261719 223.03125 C 657.039062 223.5 656.839844 223.980469 656.667969 224.472656 C 656.492188 224.960938 656.34375 225.460938 656.222656 225.964844 C 656.097656 226.46875 656 226.980469 655.925781 227.496094 C 655.851562 228.011719 655.804688 228.527344 655.785156 229.046875 C 655.761719 229.566406 655.765625 230.085938 655.796875 230.605469 L 655.796875 312.472656 C 655.628906 314.265625 655.773438 316.027344 656.226562 317.765625 C 656.683594 319.503906 657.421875 321.113281 658.445312 322.589844 L 721.453125 396.519531 L 721.453125 688.390625 C 721.445312 689.714844 721.371094 691.039062 721.234375 692.355469 C 721.097656 693.675781 720.894531 694.984375 720.628906 696.285156 C 720.367188 697.582031 720.039062 698.867188 719.648438 700.132812 C 719.257812 701.402344 718.808594 702.648438 718.296875 703.871094 C 717.785156 705.09375 717.214844 706.289062 716.585938 707.457031 C 715.957031 708.625 715.273438 709.757812 714.535156 710.859375 C 713.796875 711.960938 713.007812 713.023438 712.164062 714.046875 C 711.324219 715.074219 710.433594 716.054688 709.496094 716.992188 C 708.554688 717.929688 707.574219 718.816406 706.550781 719.660156 C 705.527344 720.5 704.460938 721.289062 703.359375 722.027344 C 702.257812 722.765625 701.125 723.449219 699.957031 724.074219 C 698.789062 724.703125 697.589844 725.269531 696.367188 725.78125 C 695.144531 726.292969 693.898438 726.742188 692.628906 727.128906 C 691.363281 727.519531 690.078125 727.847656 688.78125 728.109375 C 687.480469 728.375 686.171875 728.574219 684.851562 728.710938 C 683.53125 728.84375 682.210938 728.917969 680.882812 728.925781 C 679.550781 728.945312 678.222656 728.898438 676.894531 728.785156 C 675.566406 728.675781 674.246094 728.496094 672.9375 728.25 C 671.625 728.003906 670.332031 727.695312 669.050781 727.320312 C 667.773438 726.945312 666.515625 726.507812 665.28125 726.007812 C 664.046875 725.507812 662.839844 724.945312 661.660156 724.324219 C 660.480469 723.703125 659.335938 723.023438 658.226562 722.285156 C 657.113281 721.550781 656.042969 720.757812 655.011719 719.914062 C 653.980469 719.070312 652.992188 718.179688 652.050781 717.234375 C 651.109375 716.292969 650.21875 715.304688 649.375 714.273438 C 648.53125 713.238281 647.742188 712.167969 647.007812 711.054688 C 646.269531 709.945312 645.59375 708.800781 644.972656 707.621094 C 644.351562 706.441406 643.792969 705.230469 643.292969 703.996094 C 642.792969 702.761719 642.355469 701.503906 641.980469 700.222656 C 641.609375 698.945312 641.300781 697.648438 641.054688 696.339844 C 640.8125 695.027344 640.636719 693.707031 640.523438 692.378906 C 640.414062 691.050781 640.367188 689.722656 640.390625 688.390625 L 640.390625 415.917969 C 640.367188 414.835938 640.242188 413.769531 640.015625 412.714844 C 639.785156 411.660156 639.460938 410.636719 639.039062 409.644531 C 638.613281 408.652344 638.101562 407.707031 637.496094 406.8125 C 636.890625 405.917969 636.207031 405.089844 635.445312 404.328125 C 634.683594 403.566406 633.851562 402.882812 632.960938 402.277344 C 632.066406 401.671875 631.121094 401.160156 630.128906 400.734375 C 629.136719 400.3125 628.113281 399.984375 627.058594 399.757812 C 626.003906 399.53125 624.9375 399.40625 623.859375 399.382812 C 623.3125 399.363281 622.765625 399.367188 622.21875 399.402344 C 621.671875 399.4375 621.128906 399.5 620.589844 399.589844 C 620.046875 399.683594 619.515625 399.800781 618.988281 399.945312 C 618.460938 400.09375 617.941406 400.265625 617.429688 400.464844 C 616.921875 400.664062 616.421875 400.890625 615.9375 401.140625 C 615.449219 401.390625 614.976562 401.667969 614.519531 401.964844 C 614.058594 402.265625 613.617188 402.589844 613.195312 402.933594 C 612.769531 403.277344 612.363281 403.644531 611.976562 404.03125 C 611.589844 404.417969 611.222656 404.824219 610.875 405.25 C 610.53125 405.675781 610.210938 406.117188 609.910156 406.574219 C 609.609375 407.035156 609.335938 407.507812 609.082031 407.992188 C 608.832031 408.480469 608.609375 408.976562 608.40625 409.488281 C 608.207031 409.996094 608.035156 410.515625 607.890625 411.042969 C 607.742188 411.574219 607.625 412.105469 607.535156 412.644531 C 607.445312 413.1875 607.378906 413.730469 607.347656 414.277344 C 607.3125 414.820312 607.304688 415.367188 607.328125 415.917969 L 607.328125 688.390625 C 607.324219 689.59375 607.355469 690.796875 607.410156 692.003906 C 607.46875 693.207031 607.558594 694.410156 607.675781 695.609375 C 607.792969 696.808594 607.9375 698.003906 608.113281 699.195312 C 608.289062 700.386719 608.496094 701.574219 608.726562 702.757812 C 608.960938 703.941406 609.226562 705.117188 609.515625 706.285156 C 609.808594 707.457031 610.128906 708.617188 610.480469 709.769531 C 610.828125 710.925781 611.203125 712.070312 611.609375 713.203125 C 612.015625 714.339844 612.449219 715.464844 612.90625 716.578125 C 613.367188 717.691406 613.855469 718.792969 614.371094 719.882812 C 614.886719 720.972656 615.425781 722.050781 615.992188 723.113281 C 616.5625 724.175781 617.152344 725.226562 617.773438 726.257812 C 618.390625 727.292969 619.035156 728.3125 619.703125 729.3125 C 620.375 730.316406 621.066406 731.300781 621.785156 732.269531 C 622.5 733.238281 623.242188 734.191406 624.007812 735.121094 C 624.769531 736.054688 625.554688 736.96875 626.367188 737.859375 C 627.175781 738.753906 628.003906 739.628906 628.855469 740.480469 C 629.707031 741.332031 630.582031 742.164062 631.472656 742.972656 C 632.367188 743.785156 633.277344 744.570312 634.207031 745.335938 C 635.140625 746.101562 636.089844 746.84375 637.058594 747.5625 C 638.023438 748.28125 639.011719 748.972656 640.011719 749.644531 C 641.011719 750.3125 642.03125 750.957031 643.066406 751.578125 C 644.097656 752.199219 645.144531 752.792969 646.210938 753.359375 C 647.273438 753.929688 648.347656 754.472656 649.4375 754.988281 C 650.527344 755.503906 651.628906 755.992188 652.742188 756.453125 C 653.855469 756.914062 654.976562 757.347656 656.113281 757.753906 C 657.246094 758.160156 658.390625 758.539062 659.542969 758.890625 C 660.699219 759.238281 661.859375 759.5625 663.027344 759.855469 C 664.195312 760.148438 665.371094 760.410156 666.554688 760.648438 C 667.738281 760.882812 668.921875 761.089844 670.117188 761.265625 C 671.308594 761.441406 672.503906 761.589844 673.703125 761.707031 C 674.902344 761.824219 676.105469 761.914062 677.308594 761.972656 C 678.511719 762.03125 679.714844 762.0625 680.921875 762.0625 C 682.125 762.0625 683.332031 762.03125 684.535156 761.972656 C 685.738281 761.914062 686.941406 761.824219 688.140625 761.707031 C 689.339844 761.589844 690.535156 761.441406 691.726562 761.265625 C 692.917969 761.089844 694.105469 760.882812 695.289062 760.648438 C 696.46875 760.410156 697.644531 760.148438 698.8125 759.855469 C 699.984375 759.5625 701.144531 759.238281 702.296875 758.890625 C 703.449219 758.539062 704.59375 758.160156 705.730469 757.753906 C 706.863281 757.347656 707.988281 756.914062 709.101562 756.453125 C 710.214844 755.992188 711.316406 755.503906 712.40625 754.988281 C 713.496094 754.472656 714.570312 753.929688 715.632812 753.359375 C 716.695312 752.792969 717.742188 752.199219 718.777344 751.578125 C 719.8125 750.957031 720.828125 750.3125 721.832031 749.644531 C 722.832031 748.972656 723.816406 748.28125 724.785156 747.5625 C 725.753906 746.84375 726.703125 746.101562 727.632812 745.335938 C 728.5625 744.570312 729.476562 743.785156 730.367188 742.972656 C 731.261719 742.164062 732.132812 741.332031 732.984375 740.480469 C 733.835938 739.628906 734.667969 738.753906 735.476562 737.859375 C 736.285156 736.96875 737.070312 736.054688 737.835938 735.121094 C 738.601562 734.191406 739.339844 733.238281 740.058594 732.269531 C 740.777344 731.300781 741.46875 730.316406 742.136719 729.3125 C 742.804688 728.3125 743.449219 727.292969 744.070312 726.257812 C 744.6875 725.226562 745.28125 724.175781 745.847656 723.113281 C 746.417969 722.050781 746.957031 720.972656 747.472656 719.882812 C 747.984375 718.792969 748.472656 717.691406 748.933594 716.578125 C 749.394531 715.464844 749.828125 714.339844 750.230469 713.203125 C 750.636719 712.070312 751.015625 710.925781 751.363281 709.769531 C 751.710938 708.617188 752.03125 707.457031 752.324219 706.285156 C 752.617188 705.117188 752.878906 703.941406 753.113281 702.757812 C 753.347656 701.574219 753.550781 700.386719 753.726562 699.195312 C 753.902344 698.003906 754.050781 696.808594 754.167969 695.609375 C 754.285156 694.410156 754.371094 693.207031 754.429688 692.003906 C 754.488281 690.796875 754.515625 689.59375 754.515625 688.390625 L 754.515625 230.605469 C 754.511719 229.402344 754.480469 228.199219 754.421875 226.996094 C 754.359375 225.792969 754.269531 224.589844 754.152344 223.394531 C 754.03125 222.195312 753.882812 221 753.703125 219.808594 C 753.527344 218.617188 753.320312 217.429688 753.082031 216.25 C 752.847656 215.070312 752.582031 213.894531 752.285156 212.726562 C 751.992188 211.558594 751.671875 210.398438 751.320312 209.246094 C 750.96875 208.09375 750.589844 206.949219 750.183594 205.816406 C 749.777344 204.683594 749.34375 203.558594 748.878906 202.449219 C 748.417969 201.335938 747.929688 200.234375 747.414062 199.148438 C 746.898438 198.058594 746.355469 196.984375 745.789062 195.921875 C 745.21875 194.859375 744.625 193.8125 744.003906 192.78125 C 743.386719 191.746094 742.742188 190.730469 742.070312 189.730469 C 741.402344 188.726562 740.707031 187.742188 739.988281 186.777344 C 739.273438 185.808594 738.53125 184.859375 737.765625 183.929688 C 737.003906 183 736.214844 182.089844 735.40625 181.195312 C 734.597656 180.304688 733.765625 179.433594 732.914062 178.582031 C 732.0625 177.730469 731.191406 176.898438 730.300781 176.089844 C 729.40625 175.28125 728.496094 174.496094 727.5625 173.730469 C 726.632812 172.96875 725.683594 172.226562 724.714844 171.507812 C 723.75 170.792969 722.765625 170.097656 721.761719 169.429688 C 720.761719 168.757812 719.746094 168.117188 718.710938 167.496094 C 717.679688 166.875 716.632812 166.28125 715.570312 165.714844 C 714.507812 165.148438 713.433594 164.605469 712.34375 164.089844 C 711.253906 163.574219 710.15625 163.085938 709.042969 162.625 C 707.929688 162.164062 706.804688 161.730469 705.671875 161.324219 C 704.539062 160.917969 703.394531 160.539062 702.242188 160.1875 C 701.089844 159.839844 699.929688 159.515625 698.761719 159.222656 C 697.59375 158.929688 696.421875 158.664062 695.238281 158.429688 C 694.058594 158.195312 692.871094 157.988281 691.679688 157.808594 C 690.492188 157.632812 689.296875 157.484375 688.097656 157.363281 C 686.898438 157.246094 685.699219 157.15625 684.496094 157.097656 C 683.292969 157.035156 682.089844 157.003906 680.882812 157.003906 Z M 680.882812 157.003906 "/>
</g>
</svg>
