<?xml version="1.0" encoding="UTF-8"?>
<svg xmlns="http://www.w3.org/2000/svg" xmlns:xlink="http://www.w3.org/1999/xlink" width="863.25pt" height="863.249991pt" viewBox="0 0 863.25 863.249991" version="1.2">
<defs>
<clipPath id="clip1">
  <path d="M 145.726562 146 L 716.730469 146 L 716.730469 714 L 145.726562 714 Z M 145.726562 146 "/>
</clipPath>
<clipPath id="clip2">
  <path d="M 386 520 L 716.730469 520 L 716.730469 716.730469 L 386 716.730469 Z M 386 520 "/>
</clipPath>
</defs>
<g id="surface1">
<path style=" stroke:none;fill-rule:nonzero;fill:rgb(10.198975%,45.098877%,90.979004%);fill-opacity:1;" d="M 617.851562 404.503906 C 617.851562 405.671875 617.824219 406.835938 617.773438 408.003906 C 617.71875 409.167969 617.636719 410.328125 617.53125 411.492188 C 617.421875 412.652344 617.289062 413.808594 617.128906 414.960938 C 616.96875 416.117188 616.78125 417.265625 616.570312 418.40625 C 616.355469 419.550781 616.117188 420.691406 615.851562 421.820312 C 615.585938 422.953125 615.292969 424.074219 614.976562 425.191406 C 614.65625 426.308594 614.316406 427.414062 613.945312 428.511719 C 613.578125 429.613281 613.183594 430.699219 612.765625 431.777344 C 612.347656 432.855469 611.90625 433.921875 611.4375 434.972656 C 610.96875 436.027344 610.480469 437.070312 609.964844 438.097656 C 609.449219 439.128906 608.910156 440.140625 608.347656 441.140625 C 607.785156 442.144531 607.199219 443.128906 606.59375 444.097656 C 605.984375 445.066406 605.355469 446.019531 604.703125 446.957031 C 604.054688 447.894531 603.378906 448.8125 602.6875 449.714844 C 601.992188 450.617188 601.28125 451.5 600.546875 452.363281 C 599.8125 453.226562 599.058594 454.070312 598.285156 454.898438 C 597.511719 455.722656 596.71875 456.523438 595.910156 457.308594 C 595.097656 458.089844 594.269531 458.851562 593.425781 459.59375 C 592.582031 460.332031 591.71875 461.050781 590.839844 461.746094 C 589.960938 462.441406 589.070312 463.109375 588.160156 463.757812 C 587.25 464.40625 586.328125 465.03125 585.390625 465.628906 C 584.453125 466.230469 583.5 466.804688 582.535156 467.355469 C 581.570312 467.902344 580.59375 468.429688 579.605469 468.925781 C 578.617188 469.425781 577.621094 469.898438 576.609375 470.34375 C 575.597656 470.789062 574.578125 471.210938 573.550781 471.601562 C 572.519531 471.996094 571.480469 472.363281 570.4375 472.699219 C 569.390625 473.039062 568.335938 473.351562 567.277344 473.632812 C 566.214844 473.917969 565.148438 474.171875 564.074219 474.398438 C 563.003906 474.628906 561.925781 474.828125 560.84375 474.996094 C 559.761719 475.167969 558.679688 475.3125 557.589844 475.425781 C 556.503906 475.539062 555.414062 475.625 554.320312 475.683594 C 553.226562 475.742188 552.136719 475.769531 551.042969 475.769531 C 549.949219 475.769531 548.855469 475.742188 547.765625 475.683594 C 546.671875 475.625 545.582031 475.539062 544.492188 475.425781 C 543.40625 475.3125 542.320312 475.167969 541.238281 474.996094 C 540.15625 474.828125 539.082031 474.628906 538.007812 474.398438 C 536.9375 474.171875 535.867188 473.917969 534.808594 473.632812 C 533.746094 473.351562 532.695312 473.039062 531.648438 472.699219 C 530.601562 472.363281 529.5625 471.996094 528.535156 471.601562 C 527.503906 471.210938 526.484375 470.789062 525.476562 470.34375 C 524.464844 469.898438 523.464844 469.425781 522.476562 468.925781 C 521.488281 468.429688 520.511719 467.902344 519.546875 467.355469 C 518.582031 466.804688 517.632812 466.230469 516.695312 465.628906 C 515.757812 465.03125 514.832031 464.40625 513.925781 463.757812 C 513.015625 463.109375 512.121094 462.441406 511.242188 461.746094 C 510.363281 461.050781 509.503906 460.332031 508.660156 459.59375 C 507.8125 458.851562 506.984375 458.089844 506.175781 457.308594 C 505.363281 456.523438 504.574219 455.722656 503.800781 454.898438 C 503.027344 454.070312 502.273438 453.226562 501.539062 452.363281 C 500.804688 451.5 500.089844 450.617188 499.398438 449.714844 C 498.703125 448.8125 498.03125 447.894531 497.378906 446.957031 C 496.726562 446.019531 496.097656 445.066406 495.492188 444.097656 C 494.882812 443.128906 494.300781 442.144531 493.738281 441.140625 C 493.175781 440.140625 492.636719 439.128906 492.121094 438.097656 C 491.605469 437.070312 491.113281 436.027344 490.644531 434.972656 C 490.179688 433.921875 489.734375 432.855469 489.316406 431.777344 C 488.898438 430.699219 488.503906 429.613281 488.136719 428.511719 C 487.769531 427.414062 487.425781 426.308594 487.109375 425.191406 C 486.792969 424.074219 486.5 422.953125 486.234375 421.820312 C 485.96875 420.691406 485.730469 419.550781 485.515625 418.40625 C 485.300781 417.265625 485.117188 416.117188 484.953125 414.960938 C 484.792969 413.808594 484.660156 412.652344 484.554688 411.492188 C 484.445312 410.328125 484.367188 409.167969 484.3125 408.003906 C 484.257812 406.835938 484.230469 405.671875 484.230469 404.503906 C 484.230469 403.339844 484.257812 402.171875 484.3125 401.007812 C 484.367188 399.84375 484.445312 398.679688 484.554688 397.519531 C 484.660156 396.359375 484.792969 395.203125 484.953125 394.046875 C 485.117188 392.894531 485.300781 391.746094 485.515625 390.601562 C 485.730469 389.457031 485.96875 388.320312 486.234375 387.1875 C 486.5 386.058594 486.792969 384.933594 487.109375 383.816406 C 487.425781 382.703125 487.769531 381.59375 488.136719 380.496094 C 488.503906 379.398438 488.898438 378.3125 489.316406 377.234375 C 489.734375 376.15625 490.179688 375.089844 490.644531 374.035156 C 491.113281 372.980469 491.605469 371.941406 492.121094 370.910156 C 492.636719 369.882812 493.175781 368.867188 493.738281 367.867188 C 494.300781 366.867188 494.882812 365.882812 495.492188 364.914062 C 496.097656 363.941406 496.726562 362.988281 497.378906 362.054688 C 498.03125 361.117188 498.703125 360.195312 499.398438 359.296875 C 500.089844 358.394531 500.804688 357.511719 501.539062 356.648438 C 502.273438 355.78125 503.027344 354.9375 503.800781 354.113281 C 504.574219 353.289062 505.363281 352.484375 506.175781 351.703125 C 506.984375 350.917969 507.8125 350.15625 508.660156 349.417969 C 509.503906 348.675781 510.363281 347.960938 511.242188 347.265625 C 512.121094 346.570312 513.015625 345.898438 513.925781 345.25 C 514.832031 344.601562 515.757812 343.980469 516.695312 343.378906 C 517.632812 342.78125 518.582031 342.207031 519.546875 341.65625 C 520.511719 341.105469 521.488281 340.582031 522.476562 340.082031 C 523.464844 339.585938 524.464844 339.113281 525.476562 338.664062 C 526.484375 338.21875 527.503906 337.800781 528.535156 337.40625 C 529.5625 337.015625 530.601562 336.648438 531.648438 336.308594 C 532.695312 335.972656 533.746094 335.660156 534.808594 335.375 C 535.867188 335.09375 536.9375 334.839844 538.007812 334.609375 C 539.082031 334.382812 540.15625 334.183594 541.238281 334.011719 C 542.320312 333.839844 543.40625 333.699219 544.492188 333.585938 C 545.582031 333.46875 546.671875 333.382812 547.765625 333.328125 C 548.855469 333.269531 549.949219 333.242188 551.042969 333.242188 C 552.136719 333.242188 553.226562 333.269531 554.320312 333.328125 C 555.414062 333.382812 556.503906 333.46875 557.589844 333.585938 C 558.679688 333.699219 559.761719 333.839844 560.84375 334.011719 C 561.925781 334.183594 563.003906 334.382812 564.074219 334.609375 C 565.148438 334.839844 566.214844 335.09375 567.277344 335.375 C 568.335938 335.660156 569.390625 335.972656 570.4375 336.308594 C 571.480469 336.648438 572.519531 337.015625 573.550781 337.40625 C 574.578125 337.800781 575.597656 338.21875 576.609375 338.664062 C 577.621094 339.113281 578.617188 339.585938 579.605469 340.082031 C 580.59375 340.582031 581.570312 341.105469 582.535156 341.65625 C 583.5 342.207031 584.453125 342.78125 585.390625 343.378906 C 586.328125 343.980469 587.25 344.601562 588.160156 345.25 C 589.070312 345.898438 589.960938 346.570312 590.839844 347.265625 C 591.71875 347.960938 592.582031 348.675781 593.425781 349.417969 C 594.269531 350.15625 595.097656 350.917969 595.910156 351.703125 C 596.71875 352.484375 597.511719 353.289062 598.285156 354.113281 C 599.058594 354.9375 599.8125 355.78125 600.546875 356.648438 C 601.28125 357.511719 601.992188 358.394531 602.6875 359.296875 C 603.378906 360.195312 604.054688 361.117188 604.703125 362.054688 C 605.355469 362.988281 605.984375 363.941406 606.59375 364.914062 C 607.199219 365.882812 607.785156 366.867188 608.347656 367.867188 C 608.910156 368.867188 609.449219 369.882812 609.964844 370.910156 C 610.480469 371.941406 610.96875 372.980469 611.4375 374.035156 C 611.90625 375.089844 612.347656 376.15625 612.765625 377.234375 C 613.183594 378.3125 613.578125 379.398438 613.945312 380.496094 C 614.316406 381.59375 614.65625 382.703125 614.976562 383.816406 C 615.292969 384.933594 615.585938 386.058594 615.851562 387.1875 C 616.117188 388.320312 616.355469 389.457031 616.570312 390.601562 C 616.78125 391.746094 616.96875 392.894531 617.128906 394.046875 C 617.289062 395.203125 617.421875 396.359375 617.53125 397.519531 C 617.636719 398.679688 617.71875 399.84375 617.773438 401.007812 C 617.824219 402.171875 617.851562 403.339844 617.851562 404.503906 Z M 617.851562 404.503906 "/>
<path style=" stroke:none;fill-rule:nonzero;fill:rgb(10.198975%,45.098877%,90.979004%);fill-opacity:1;" d="M 612.0625 471.316406 C 635.222656 471.316406 655.710938 483.785156 666.847656 502.492188 L 686.890625 502.492188 C 675.753906 476.214844 650.8125 457.507812 621.414062 453.945312 C 617.40625 460.179688 612.507812 465.96875 606.71875 471.316406 Z M 612.0625 471.316406 "/>
<path style=" stroke:none;fill-rule:nonzero;fill:rgb(10.198975%,45.098877%,90.979004%);fill-opacity:1;" d="M 415.195312 502.492188 L 435.238281 502.492188 C 446.371094 483.785156 466.863281 471.316406 490.023438 471.316406 L 495.367188 471.316406 C 490.023438 466.414062 485.121094 460.625 480.667969 453.945312 C 451.273438 457.507812 426.328125 476.214844 415.195312 502.492188 Z M 415.195312 502.492188 "/>
<g clip-path="url(#clip1)" clip-rule="nonzero">
<path style=" stroke:none;fill-rule:nonzero;fill:rgb(10.198975%,45.098877%,90.979004%);fill-opacity:1;" d="M 430.785156 146.171875 C 273.558594 146.171875 145.726562 274.003906 145.726562 431.230469 C 145.726562 575.09375 253.070312 694.460938 392.035156 713.613281 C 388.023438 707.824219 385.351562 701.585938 384.460938 694.460938 C 332.351562 685.109375 285.582031 661.054688 248.613281 626.316406 L 273.558594 601.371094 C 277.121094 597.808594 277.121094 592.464844 273.558594 588.902344 C 269.996094 585.339844 264.648438 585.339844 261.085938 588.902344 L 236.144531 613.84375 C 192.941406 567.96875 165.769531 506.949219 163.542969 440.136719 L 199.175781 440.136719 C 204.074219 440.136719 208.082031 436.128906 208.082031 431.230469 C 208.082031 426.328125 204.074219 422.320312 199.175781 422.320312 L 163.988281 422.320312 C 166.214844 355.511719 192.941406 294.492188 236.144531 248.613281 L 261.085938 273.558594 C 262.867188 275.339844 265.09375 276.230469 267.320312 276.230469 C 269.546875 276.230469 271.777344 275.339844 273.558594 273.558594 C 277.121094 269.996094 277.121094 264.648438 273.558594 261.085938 L 248.167969 236.144531 C 294.046875 193.386719 355.066406 166.214844 421.875 164.433594 L 421.875 199.621094 C 421.875 204.519531 425.882812 208.527344 430.785156 208.527344 C 435.683594 208.527344 439.691406 204.519531 439.691406 199.621094 L 439.691406 164.433594 C 506.503906 166.660156 567.523438 193.386719 613.398438 236.589844 L 588.457031 261.53125 C 584.890625 265.09375 584.890625 270.441406 588.457031 274.003906 C 590.238281 275.785156 592.464844 276.675781 594.691406 276.675781 C 596.917969 276.675781 599.144531 275.785156 600.925781 274.003906 L 625.871094 249.058594 C 668.628906 294.9375 695.796875 355.511719 698.023438 422.765625 L 662.390625 422.765625 C 657.492188 422.765625 653.484375 426.773438 653.484375 431.675781 C 653.484375 436.574219 657.492188 440.582031 662.390625 440.582031 L 698.023438 440.582031 C 697.578125 453.5 696.242188 466.414062 694.015625 478.441406 C 699.359375 486.011719 703.816406 494.921875 706.933594 503.828125 C 713.167969 480.667969 716.285156 456.617188 716.285156 431.675781 C 715.839844 274.003906 588.011719 146.171875 430.785156 146.171875 Z M 430.785156 146.171875 "/>
</g>
<path style=" stroke:none;fill-rule:nonzero;fill:rgb(10.198975%,45.098877%,90.979004%);fill-opacity:1;" d="M 563.511719 618.296875 C 563.511719 619.058594 563.4375 619.8125 563.289062 620.558594 C 563.140625 621.300781 562.921875 622.027344 562.632812 622.730469 C 562.339844 623.433594 561.984375 624.097656 561.5625 624.730469 C 561.140625 625.363281 560.660156 625.949219 560.121094 626.484375 C 559.582031 627.023438 559 627.503906 558.367188 627.925781 C 557.734375 628.347656 557.066406 628.707031 556.363281 628.996094 C 555.660156 629.289062 554.9375 629.507812 554.191406 629.65625 C 553.445312 629.804688 552.691406 629.878906 551.933594 629.878906 C 551.171875 629.878906 550.417969 629.804688 549.671875 629.65625 C 548.929688 629.507812 548.203125 629.289062 547.5 628.996094 C 546.796875 628.707031 546.132812 628.347656 545.5 627.925781 C 544.867188 627.503906 544.28125 627.023438 543.746094 626.484375 C 543.207031 625.949219 542.726562 625.363281 542.304688 624.730469 C 541.882812 624.097656 541.523438 623.433594 541.234375 622.730469 C 540.941406 622.027344 540.722656 621.300781 540.574219 620.558594 C 540.425781 619.8125 540.351562 619.058594 540.351562 618.296875 C 540.351562 617.539062 540.425781 616.785156 540.574219 616.039062 C 540.722656 615.292969 540.941406 614.570312 541.234375 613.867188 C 541.523438 613.164062 541.882812 612.496094 542.304688 611.863281 C 542.726562 611.230469 543.207031 610.648438 543.746094 610.109375 C 544.28125 609.570312 544.867188 609.089844 545.5 608.667969 C 546.132812 608.246094 546.796875 607.890625 547.5 607.597656 C 548.203125 607.308594 548.929688 607.089844 549.671875 606.941406 C 550.417969 606.792969 551.171875 606.71875 551.933594 606.71875 C 552.691406 606.71875 553.445312 606.792969 554.191406 606.941406 C 554.9375 607.089844 555.660156 607.308594 556.363281 607.597656 C 557.066406 607.890625 557.734375 608.246094 558.367188 608.667969 C 559 609.089844 559.582031 609.570312 560.121094 610.109375 C 560.660156 610.648438 561.140625 611.230469 561.5625 611.863281 C 561.984375 612.496094 562.339844 613.164062 562.632812 613.867188 C 562.921875 614.570312 563.140625 615.292969 563.289062 616.039062 C 563.4375 616.785156 563.511719 617.539062 563.511719 618.296875 Z M 563.511719 618.296875 "/>
<g clip-path="url(#clip2)" clip-rule="nonzero">
<path style=" stroke:none;fill-rule:nonzero;fill:rgb(10.198975%,45.098877%,90.979004%);fill-opacity:1;" d="M 690.898438 520.308594 L 411.1875 520.308594 C 404.058594 520.308594 397.378906 523.425781 392.480469 528.328125 C 388.023438 533.671875 385.796875 540.796875 386.242188 547.925781 L 401.832031 690.453125 C 403.167969 704.707031 416.085938 716.285156 430.339844 716.285156 L 671.746094 716.285156 C 686 716.285156 698.914062 704.707031 700.25 690.453125 L 715.839844 547.925781 C 716.730469 540.796875 714.503906 533.671875 709.605469 528.328125 C 704.707031 523.425781 698.023438 520.308594 690.898438 520.308594 Z M 551.933594 648.140625 C 535.453125 648.140625 522.535156 634.777344 522.535156 618.742188 C 522.535156 602.261719 535.898438 589.347656 551.933594 589.347656 C 568.414062 589.347656 581.328125 602.707031 581.328125 618.742188 C 581.328125 634.777344 567.96875 648.140625 551.933594 648.140625 Z M 551.933594 648.140625 "/>
</g>
<path style=" stroke:none;fill-rule:nonzero;fill:rgb(10.198975%,45.098877%,90.979004%);fill-opacity:1;" d="M 430.785156 279.792969 C 425.882812 279.792969 421.875 283.800781 421.875 288.699219 L 421.875 422.320312 L 323.886719 422.320312 C 318.988281 422.320312 314.980469 426.328125 314.980469 431.230469 C 314.980469 436.128906 318.988281 440.136719 323.886719 440.136719 L 430.785156 440.136719 C 435.683594 440.136719 439.691406 436.128906 439.691406 431.230469 L 439.691406 288.699219 C 439.691406 283.800781 435.683594 279.792969 430.785156 279.792969 Z M 430.785156 279.792969 "/>
</g>
</svg>
