<?xml version="1.0" encoding="UTF-8"?>
<svg xmlns="http://www.w3.org/2000/svg" xmlns:xlink="http://www.w3.org/1999/xlink" width="863.25pt" height="863.249991pt" viewBox="0 0 863.25 863.249991" version="1.2">
<defs>
<clipPath id="clip1">
  <path d="M 241.863281 77.253906 L 620.285156 77.253906 L 620.285156 785.390625 L 241.863281 785.390625 Z M 241.863281 77.253906 "/>
</clipPath>
</defs>
<g id="surface1">
<g clip-path="url(#clip1)" clip-rule="nonzero">
<path style=" stroke:none;fill-rule:nonzero;fill:rgb(10.198975%,45.098877%,90.979004%);fill-opacity:1;" d="M 598.691406 703.246094 L 263.347656 703.246094 L 263.347656 150.328125 L 598.691406 150.328125 Z M 444.550781 774.414062 L 417.480469 774.414062 C 402.816406 774.414062 390.929688 761.066406 390.929688 744.601562 C 390.929688 728.140625 402.816406 714.792969 417.480469 714.792969 L 444.550781 714.792969 C 459.21875 714.792969 471.101562 728.140625 471.101562 744.601562 C 471.101562 761.066406 459.21875 774.414062 444.550781 774.414062 Z M 509.65625 96.480469 L 528.058594 96.480469 C 535.675781 96.480469 541.855469 103.414062 541.855469 111.972656 C 541.855469 120.527344 535.675781 127.464844 528.058594 127.464844 L 509.65625 127.464844 C 502.035156 127.464844 495.863281 120.527344 495.863281 111.972656 C 495.863281 103.414062 502.035156 96.480469 509.65625 96.480469 Z M 576.945312 77.222656 L 285.09375 77.222656 C 261.210938 77.222656 241.859375 104.394531 241.859375 137.90625 L 241.859375 724.707031 C 241.859375 758.21875 261.210938 785.394531 285.09375 785.394531 L 576.945312 785.394531 C 600.820312 785.394531 620.183594 758.21875 620.183594 724.707031 L 620.183594 137.90625 C 620.183594 104.394531 600.820312 77.222656 576.945312 77.222656 "/>
</g>
<path style=" stroke:none;fill-rule:nonzero;fill:rgb(10.198975%,45.098877%,90.979004%);fill-opacity:1;" d="M 463.214844 744.601562 C 463.214844 757.828125 453.667969 768.542969 441.886719 768.542969 L 420.144531 768.542969 C 408.367188 768.542969 398.820312 757.828125 398.820312 744.601562 C 398.820312 731.378906 408.367188 720.65625 420.144531 720.65625 L 441.886719 720.65625 C 453.667969 720.65625 463.214844 731.378906 463.214844 744.601562 "/>
</g>
</svg>
