<?xml version="1.0" encoding="UTF-8"?>
<svg xmlns="http://www.w3.org/2000/svg" xmlns:xlink="http://www.w3.org/1999/xlink" width="863.25pt" height="863.249991pt" viewBox="0 0 863.25 863.249991" version="1.2">
<defs>
<clipPath id="clip1">
  <path d="M 35 152 L 748 152 L 748 712.410156 L 35 712.410156 Z M 35 152 "/>
</clipPath>
<clipPath id="clip2">
  <path d="M 0 150.398438 L 475 150.398438 L 475 574 L 0 574 Z M 0 150.398438 "/>
</clipPath>
<clipPath id="clip3">
  <path d="M 441 150.398438 L 862.5 150.398438 L 862.5 571 L 441 571 Z M 441 150.398438 "/>
</clipPath>
</defs>
<g id="surface1">
<g clip-path="url(#clip1)" clip-rule="nonzero">
<path style=" stroke:none;fill-rule:nonzero;fill:rgb(10.198975%,45.098877%,90.979004%);fill-opacity:1;" d="M 385.84375 694.488281 C 377.554688 690.253906 369.917969 686.019531 362.898438 681.785156 C 365.25 681.804688 367.582031 681.804688 369.886719 681.789062 C 376.960938 686.019531 384.648438 690.253906 392.992188 694.488281 C 390.640625 694.503906 388.253906 694.503906 385.84375 694.488281 Z M 327.976562 656.378906 C 330.207031 656.398438 332.421875 656.398438 334.632812 656.382812 C 339.355469 660.617188 344.628906 664.851562 350.496094 669.085938 C 348.234375 669.101562 345.960938 669.101562 343.671875 669.082031 C 337.863281 664.847656 332.640625 660.613281 327.976562 656.378906 Z M 306.40625 630.972656 C 308.515625 630.992188 310.625 630.992188 312.734375 630.980469 C 315.355469 635.214844 318.46875 639.449219 322.105469 643.683594 C 319.949219 643.699219 317.78125 643.695312 315.613281 643.675781 C 312.03125 639.445312 308.96875 635.207031 306.40625 630.972656 Z M 296.6875 605.570312 C 298.679688 605.585938 300.679688 605.589844 302.683594 605.578125 C 303.453125 609.808594 304.65625 614.042969 306.320312 618.277344 C 304.265625 618.292969 302.214844 618.292969 300.164062 618.273438 C 298.550781 614.039062 297.40625 609.804688 296.6875 605.570312 Z M 297.308594 580.164062 C 299.1875 580.179688 301.074219 580.1875 302.96875 580.171875 C 302.144531 584.40625 301.6875 588.640625 301.628906 592.875 C 299.679688 592.886719 297.734375 592.882812 295.800781 592.867188 C 295.914062 588.632812 296.425781 584.402344 297.308594 580.164062 Z M 306.753906 554.757812 C 308.515625 554.777344 310.292969 554.777344 312.085938 554.769531 C 309.914062 559.003906 308.046875 563.238281 306.519531 567.472656 C 304.675781 567.480469 302.84375 567.476562 301.023438 567.460938 C 302.609375 563.226562 304.527344 558.992188 306.753906 554.757812 Z M 323.519531 529.351562 C 325.171875 529.371094 326.839844 529.371094 328.519531 529.367188 C 325.25 533.601562 322.230469 537.832031 319.480469 542.066406 C 317.746094 542.078125 316.023438 542.070312 314.320312 542.054688 C 317.121094 537.820312 320.199219 533.585938 323.519531 529.351562 Z M 346.089844 503.949219 C 347.628906 503.964844 349.1875 503.96875 350.757812 503.960938 C 346.648438 508.195312 342.722656 512.429688 339.003906 516.660156 C 337.378906 516.671875 335.769531 516.667969 334.171875 516.652344 C 337.941406 512.417969 341.925781 508.183594 346.089844 503.949219 Z M 372.957031 478.542969 C 374.390625 478.558594 375.835938 478.566406 377.292969 478.558594 C 372.597656 482.792969 368.015625 487.027344 363.582031 491.261719 C 362.066406 491.265625 360.566406 491.261719 359.078125 491.246094 C 363.570312 487.011719 368.207031 482.78125 372.957031 478.542969 Z M 402.609375 453.140625 C 403.933594 453.152344 405.269531 453.160156 406.617188 453.152344 C 401.582031 457.390625 396.597656 461.621094 391.699219 465.855469 C 390.296875 465.859375 388.90625 465.855469 387.527344 465.839844 C 392.480469 461.605469 397.519531 457.371094 402.609375 453.140625 Z M 433.535156 427.734375 C 434.75 427.75 435.980469 427.753906 437.21875 427.75 C 432.097656 431.980469 426.964844 436.214844 421.851562 440.449219 C 420.558594 440.457031 419.277344 440.449219 418.007812 440.4375 C 423.171875 436.203125 428.359375 431.96875 433.535156 427.734375 Z M 464.226562 402.332031 C 465.335938 402.34375 466.453125 402.347656 467.582031 402.34375 C 462.625 406.578125 457.59375 410.8125 452.523438 415.046875 C 451.339844 415.050781 450.164062 415.046875 449.003906 415.035156 C 454.132812 410.800781 459.214844 406.566406 464.226562 402.332031 Z M 493.171875 376.929688 C 494.175781 376.9375 495.183594 376.945312 496.199219 376.941406 C 491.660156 381.175781 486.984375 385.410156 482.203125 389.644531 C 481.132812 389.644531 480.066406 389.640625 479.011719 389.628906 C 483.847656 385.394531 488.578125 381.164062 493.171875 376.929688 Z M 518.863281 351.523438 C 519.761719 351.535156 520.664062 351.539062 521.566406 351.535156 C 517.695312 355.769531 513.625 360.003906 509.386719 364.234375 C 508.425781 364.238281 507.46875 364.234375 506.519531 364.226562 C 510.8125 359.992188 514.9375 355.757812 518.863281 351.523438 Z M 539.789062 326.121094 C 540.578125 326.128906 541.371094 326.132812 542.167969 326.132812 C 539.214844 330.363281 536.003906 334.597656 532.558594 338.832031 C 531.707031 338.835938 530.859375 338.832031 530.015625 338.824219 C 533.515625 334.589844 536.785156 330.351562 539.789062 326.121094 Z M 554.4375 300.71875 C 555.121094 300.722656 555.804688 300.726562 556.492188 300.726562 C 554.710938 304.960938 552.605469 309.195312 550.207031 313.429688 C 549.46875 313.429688 548.726562 313.425781 547.992188 313.417969 C 550.441406 309.183594 552.601562 304.953125 554.4375 300.71875 Z M 561.300781 275.3125 C 561.875 275.320312 562.453125 275.324219 563.023438 275.320312 C 562.667969 279.554688 561.925781 283.789062 560.828125 288.023438 C 560.195312 288.027344 559.5625 288.023438 558.933594 288.011719 C 560.089844 283.78125 560.886719 279.542969 561.300781 275.3125 Z M 558.863281 249.910156 C 559.332031 249.914062 559.800781 249.917969 560.265625 249.917969 C 561.582031 254.152344 562.453125 258.386719 562.902344 262.617188 C 562.382812 262.617188 561.863281 262.617188 561.335938 262.613281 C 560.941406 258.375 560.128906 254.144531 558.863281 249.910156 Z M 545.621094 224.507812 C 545.980469 224.511719 546.339844 224.511719 546.699219 224.511719 C 549.941406 228.746094 552.675781 232.976562 554.925781 237.214844 C 554.515625 237.214844 554.101562 237.210938 553.6875 237.207031 C 551.492188 232.976562 548.816406 228.742188 545.621094 224.507812 Z M 520.066406 199.101562 C 520.3125 199.105469 520.5625 199.105469 520.808594 199.105469 C 526.234375 203.339844 531.082031 207.574219 535.386719 211.808594 C 535.085938 211.8125 534.78125 211.808594 534.480469 211.804688 C 530.226562 207.570312 525.433594 203.335938 520.066406 199.101562 Z M 480.675781 173.699219 C 480.820312 173.703125 480.953125 173.703125 481.09375 173.703125 C 488.949219 177.9375 496.164062 182.171875 502.773438 186.40625 C 502.582031 186.40625 502.390625 186.40625 502.191406 186.402344 C 495.640625 182.167969 488.480469 177.933594 480.675781 173.699219 Z M 442.691406 155.238281 C 447.125 157.160156 451.421875 159.082031 455.574219 160.996094 C 455.492188 161 455.410156 160.996094 455.328125 160.996094 C 451.195312 159.082031 446.925781 157.160156 442.515625 155.238281 C 439.582031 155.195312 434.347656 154.136719 426.882812 152.058594 C 482.882812 187.414062 487.617188 222.824219 460.539062 258.289062 C 433.808594 293.757812 375.261719 329.277344 312.84375 364.851562 C 250.152344 400.425781 183.578125 436.054688 134.328125 471.738281 C 84.164062 507.421875 51.332031 543.15625 35.125 578.953125 C 46.96875 600.972656 63.574219 620.273438 89.636719 636.847656 C 115.304688 653.417969 150.429688 667.269531 190.074219 678.390625 C 270.355469 700.640625 364.679688 711.984375 424.945312 712.429688 C 420.746094 710.683594 416.664062 708.9375 412.691406 707.191406 C 415.167969 707.210938 417.609375 707.210938 420.011719 707.191406 C 424 708.9375 428.105469 710.683594 432.324219 712.429688 C 493.875 711.980469 520.5 700.410156 558.679688 677.714844 C 578.121094 666.371094 601.558594 652.242188 633.390625 635.332031 C 664.804688 618.425781 704.613281 598.734375 747.132812 576.261719 C 705.34375 541.136719 680.003906 505.957031 671.996094 470.722656 C 663.082031 435.488281 671.511719 400.195312 676.265625 364.851562 C 680.726562 329.507812 681.527344 294.105469 650.644531 258.652344 C 620.085938 223.195312 557.835938 187.6875 443.617188 152.121094 C 446.035156 154.203125 445.539062 155.238281 442.691406 155.238281 "/>
</g>
<g clip-path="url(#clip2)" clip-rule="nonzero">
<path style=" stroke:none;fill-rule:nonzero;fill:rgb(10.198975%,45.098877%,90.979004%);fill-opacity:1;" d="M 421.144531 150.398438 C 458.496094 179.957031 458.605469 209.519531 431.546875 239.082031 C 404.949219 268.640625 351.183594 298.199219 291.4375 327.761719 C 231.625 357.324219 165.824219 386.882812 113.515625 416.441406 C 60.597656 446.003906 21.167969 475.566406 0.1875 505.125 C 14.207031 530.203125 21.804688 553.003906 32.277344 573.527344 C 49.191406 538.175781 82.546875 502.875 132.914062 467.628906 C 182.382812 432.382812 248.867188 397.199219 311.308594 362.0625 C 373.480469 326.929688 431.621094 291.851562 458.304688 256.828125 C 485.355469 221.808594 480.945312 186.84375 426.425781 151.929688 C 424.777344 151.46875 423.015625 150.960938 421.144531 150.398438 "/>
</g>
<g clip-path="url(#clip3)" clip-rule="nonzero">
<path style=" stroke:none;fill-rule:nonzero;fill:rgb(10.198975%,45.098877%,90.979004%);fill-opacity:1;" d="M 441.273438 150.398438 C 442.164062 150.984375 442.894531 151.515625 443.46875 151.996094 C 557.28125 187.117188 620.265625 222.183594 651.902344 257.195312 C 683.875 292.207031 684.503906 327.164062 681.339844 362.0625 C 677.902344 396.964844 670.660156 431.808594 680.425781 466.59375 C 689.304688 501.382812 715.1875 536.113281 757.390625 570.789062 C 794.195312 550.980469 831.960938 529.089844 862.230469 505.125 C 813.054688 475.566406 782.324219 446.003906 765.085938 416.441406 C 747.246094 386.882812 742.898438 357.324219 732.554688 327.761719 C 722.136719 298.199219 705.730469 268.640625 662.160156 239.082031 C 619.054688 209.519531 548.785156 179.957031 441.273438 150.398438 "/>
</g>
<path style=" stroke:none;fill-rule:nonzero;fill:rgb(100%,100%,100%);fill-opacity:1;" d="M 455.574219 160.996094 C 451.421875 159.082031 447.125 157.160156 442.691406 155.238281 C 442.632812 155.238281 442.574219 155.238281 442.515625 155.238281 C 446.925781 157.160156 451.195312 159.082031 455.328125 160.996094 C 455.410156 160.996094 455.492188 161 455.574219 160.996094 "/>
<path style=" stroke:none;fill-rule:nonzero;fill:rgb(100%,100%,100%);fill-opacity:1;" d="M 556.492188 300.726562 C 555.804688 300.726562 555.121094 300.722656 554.4375 300.71875 C 552.601562 304.953125 550.441406 309.183594 547.992188 313.417969 C 548.726562 313.425781 549.46875 313.429688 550.207031 313.429688 C 552.605469 309.195312 554.710938 304.960938 556.492188 300.726562 "/>
<path style=" stroke:none;fill-rule:nonzero;fill:rgb(100%,100%,100%);fill-opacity:1;" d="M 542.167969 326.132812 C 541.371094 326.132812 540.578125 326.128906 539.789062 326.121094 C 536.785156 330.351562 533.515625 334.589844 530.015625 338.824219 C 530.859375 338.832031 531.707031 338.835938 532.558594 338.832031 C 536 334.597656 539.214844 330.363281 542.167969 326.132812 "/>
<path style=" stroke:none;fill-rule:nonzero;fill:rgb(100%,100%,100%);fill-opacity:1;" d="M 496.199219 376.941406 C 495.183594 376.945312 494.175781 376.9375 493.171875 376.929688 C 488.578125 381.164062 483.847656 385.394531 479.011719 389.628906 C 480.066406 389.640625 481.132812 389.644531 482.203125 389.644531 C 486.984375 385.410156 491.660156 381.175781 496.199219 376.941406 "/>
<path style=" stroke:none;fill-rule:nonzero;fill:rgb(100%,100%,100%);fill-opacity:1;" d="M 521.566406 351.535156 C 520.664062 351.539062 519.761719 351.535156 518.863281 351.523438 C 514.9375 355.757812 510.8125 359.992188 506.519531 364.226562 C 507.46875 364.234375 508.425781 364.238281 509.386719 364.234375 C 513.625 360.003906 517.695312 355.769531 521.566406 351.535156 "/>
<path style=" stroke:none;fill-rule:nonzero;fill:rgb(100%,100%,100%);fill-opacity:1;" d="M 546.699219 224.511719 C 546.339844 224.511719 545.980469 224.511719 545.621094 224.507812 C 548.816406 228.742188 551.492188 232.976562 553.6875 237.207031 C 554.101562 237.210938 554.515625 237.214844 554.925781 237.214844 C 552.675781 232.976562 549.941406 228.746094 546.699219 224.511719 "/>
<path style=" stroke:none;fill-rule:nonzero;fill:rgb(100%,100%,100%);fill-opacity:1;" d="M 520.808594 199.105469 C 520.5625 199.105469 520.3125 199.105469 520.066406 199.101562 C 525.433594 203.335938 530.226562 207.570312 534.480469 211.804688 C 534.78125 211.808594 535.085938 211.8125 535.386719 211.808594 C 531.082031 207.574219 526.234375 203.339844 520.808594 199.105469 "/>
<path style=" stroke:none;fill-rule:nonzero;fill:rgb(100%,100%,100%);fill-opacity:1;" d="M 481.09375 173.703125 C 480.953125 173.703125 480.820312 173.703125 480.675781 173.699219 C 488.480469 177.933594 495.640625 182.167969 502.191406 186.402344 C 502.390625 186.40625 502.582031 186.40625 502.773438 186.40625 C 496.164062 182.171875 488.949219 177.9375 481.09375 173.703125 "/>
<path style=" stroke:none;fill-rule:nonzero;fill:rgb(100%,100%,100%);fill-opacity:1;" d="M 560.265625 249.917969 C 559.800781 249.917969 559.332031 249.914062 558.863281 249.910156 C 560.128906 254.144531 560.941406 258.375 561.335938 262.613281 C 561.863281 262.617188 562.382812 262.617188 562.902344 262.617188 C 562.453125 258.386719 561.582031 254.152344 560.265625 249.917969 "/>
<path style=" stroke:none;fill-rule:nonzero;fill:rgb(100%,100%,100%);fill-opacity:1;" d="M 563.023438 275.320312 C 562.453125 275.324219 561.875 275.320312 561.300781 275.3125 C 560.886719 279.542969 560.089844 283.78125 558.933594 288.011719 C 559.5625 288.023438 560.195312 288.027344 560.828125 288.023438 C 561.925781 283.789062 562.667969 279.554688 563.023438 275.320312 "/>
<path style=" stroke:none;fill-rule:nonzero;fill:rgb(100%,100%,100%);fill-opacity:1;" d="M 467.582031 402.34375 C 466.453125 402.347656 465.335938 402.34375 464.226562 402.332031 C 459.214844 406.566406 454.132812 410.800781 449.003906 415.035156 C 450.164062 415.046875 451.339844 415.050781 452.523438 415.046875 C 457.59375 410.8125 462.625 406.578125 467.582031 402.34375 "/>
<path style=" stroke:none;fill-rule:nonzero;fill:rgb(100%,100%,100%);fill-opacity:1;" d="M 328.519531 529.367188 C 326.839844 529.371094 325.171875 529.371094 323.519531 529.351562 C 320.199219 533.585938 317.121094 537.820312 314.320312 542.054688 C 316.023438 542.070312 317.746094 542.078125 319.480469 542.066406 C 322.230469 537.832031 325.25 533.601562 328.519531 529.367188 "/>
<path style=" stroke:none;fill-rule:nonzero;fill:rgb(100%,100%,100%);fill-opacity:1;" d="M 377.292969 478.558594 C 375.835938 478.566406 374.390625 478.558594 372.957031 478.542969 C 368.207031 482.78125 363.570312 487.011719 359.078125 491.246094 C 360.566406 491.261719 362.066406 491.265625 363.582031 491.261719 C 368.015625 487.027344 372.597656 482.789062 377.292969 478.558594 "/>
<path style=" stroke:none;fill-rule:nonzero;fill:rgb(100%,100%,100%);fill-opacity:1;" d="M 406.617188 453.152344 C 405.269531 453.160156 403.933594 453.152344 402.609375 453.140625 C 397.519531 457.371094 392.480469 461.605469 387.527344 465.839844 C 388.90625 465.855469 390.296875 465.859375 391.699219 465.855469 C 396.597656 461.621094 401.582031 457.390625 406.617188 453.152344 "/>
<path style=" stroke:none;fill-rule:nonzero;fill:rgb(100%,100%,100%);fill-opacity:1;" d="M 312.085938 554.769531 C 310.292969 554.777344 308.515625 554.777344 306.753906 554.757812 C 304.527344 558.992188 302.609375 563.226562 301.023438 567.460938 C 302.84375 567.476562 304.675781 567.480469 306.519531 567.472656 C 308.046875 563.238281 309.910156 559.003906 312.085938 554.769531 "/>
<path style=" stroke:none;fill-rule:nonzero;fill:rgb(100%,100%,100%);fill-opacity:1;" d="M 437.21875 427.75 C 435.980469 427.753906 434.75 427.75 433.535156 427.734375 C 428.359375 431.96875 423.171875 436.203125 418.007812 440.4375 C 419.277344 440.449219 420.558594 440.457031 421.851562 440.449219 C 426.964844 436.214844 432.097656 431.980469 437.21875 427.75 "/>
<path style=" stroke:none;fill-rule:nonzero;fill:rgb(100%,100%,100%);fill-opacity:1;" d="M 350.757812 503.960938 C 349.1875 503.96875 347.628906 503.964844 346.089844 503.949219 C 341.925781 508.183594 337.941406 512.417969 334.171875 516.652344 C 335.769531 516.667969 337.378906 516.671875 339.003906 516.660156 C 342.722656 512.429688 346.648438 508.195312 350.757812 503.960938 "/>
<path style=" stroke:none;fill-rule:nonzero;fill:rgb(100%,100%,100%);fill-opacity:1;" d="M 426.425781 151.929688 C 480.945312 186.84375 485.355469 221.808594 458.300781 256.828125 C 431.605469 291.851562 373.445312 326.929688 311.273438 362.0625 C 248.835938 397.199219 182.371094 432.382812 132.90625 467.628906 C 82.546875 502.875 49.191406 538.175781 32.277344 573.527344 C 33.203125 575.355469 34.152344 577.160156 35.125 578.953125 C 51.332031 543.15625 84.164062 507.421875 134.332031 471.738281 C 183.589844 436.054688 250.183594 400.425781 312.882812 364.851562 C 375.296875 329.277344 433.820312 293.757812 460.542969 258.289062 C 487.613281 222.824219 482.882812 187.414062 426.882812 152.058594 C 426.734375 152.019531 426.578125 151.976562 426.425781 151.929688 "/>
<path style=" stroke:none;fill-rule:nonzero;fill:rgb(100%,100%,100%);fill-opacity:1;" d="M 443.617188 152.121094 C 557.835938 187.6875 620.085938 223.195312 650.636719 258.652344 C 681.515625 294.105469 680.695312 329.507812 676.230469 364.851562 C 671.476562 400.195312 663.070312 435.488281 671.988281 470.722656 C 680.003906 505.957031 705.34375 541.136719 747.132812 576.261719 C 750.542969 574.457031 753.960938 572.632812 757.390625 570.789062 C 715.1875 536.113281 689.300781 501.382812 680.433594 466.59375 C 670.675781 431.808594 677.929688 396.964844 681.371094 362.0625 C 684.535156 327.164062 683.886719 292.207031 651.910156 257.195312 C 620.265625 222.183594 557.28125 187.117188 443.46875 151.996094 C 443.519531 152.039062 443.570312 152.078125 443.617188 152.121094 "/>
</g>
</svg>
