<?xml version="1.0" encoding="UTF-8"?>
<svg xmlns="http://www.w3.org/2000/svg" xmlns:xlink="http://www.w3.org/1999/xlink" width="863.25pt" height="863.249991pt" viewBox="0 0 863.25 863.249991" version="1.2">
<defs>
<clipPath id="clip1">
  <path d="M 305 123.121094 L 559 123.121094 L 559 168 L 305 168 Z M 305 123.121094 "/>
</clipPath>
<clipPath id="clip2">
  <path d="M 125 123.121094 L 313 123.121094 L 313 287 L 125 287 Z M 125 123.121094 "/>
</clipPath>
<clipPath id="clip3">
  <path d="M 551 123.121094 L 739 123.121094 L 739 287 L 551 287 Z M 551 123.121094 "/>
</clipPath>
<clipPath id="clip4">
  <path d="M 123.121094 294 L 172 294 L 172 568 L 123.121094 568 Z M 123.121094 294 "/>
</clipPath>
</defs>
<g id="surface1">
<path style=" stroke:none;fill-rule:nonzero;fill:rgb(10.198975%,45.098877%,90.979004%);fill-opacity:1;" d="M 478.949219 421.488281 C 478.949219 423.0625 478.871094 424.632812 478.71875 426.203125 C 478.5625 427.769531 478.332031 429.324219 478.027344 430.867188 C 477.71875 432.414062 477.335938 433.9375 476.878906 435.445312 C 476.421875 436.953125 475.890625 438.433594 475.289062 439.890625 C 474.6875 441.34375 474.015625 442.765625 473.273438 444.15625 C 472.527344 445.542969 471.71875 446.894531 470.84375 448.203125 C 469.972656 449.511719 469.035156 450.777344 468.035156 451.992188 C 467.035156 453.210938 465.980469 454.375 464.867188 455.488281 C 463.753906 456.601562 462.585938 457.660156 461.371094 458.65625 C 460.152344 459.65625 458.886719 460.59375 457.578125 461.46875 C 456.269531 462.34375 454.921875 463.152344 453.53125 463.894531 C 452.144531 464.636719 450.722656 465.308594 449.265625 465.914062 C 447.8125 466.515625 446.328125 467.046875 444.824219 467.503906 C 443.316406 467.960938 441.789062 468.339844 440.246094 468.648438 C 438.699219 468.957031 437.144531 469.1875 435.578125 469.339844 C 434.011719 469.496094 432.441406 469.574219 430.863281 469.574219 C 429.289062 469.574219 427.71875 469.496094 426.152344 469.339844 C 424.585938 469.1875 423.027344 468.957031 421.484375 468.648438 C 419.9375 468.339844 418.414062 467.960938 416.90625 467.503906 C 415.398438 467.046875 413.917969 466.515625 412.464844 465.914062 C 411.007812 465.308594 409.585938 464.636719 408.199219 463.894531 C 406.808594 463.152344 405.460938 462.34375 404.148438 461.46875 C 402.839844 460.59375 401.578125 459.65625 400.359375 458.65625 C 399.144531 457.660156 397.976562 456.601562 396.863281 455.488281 C 395.75 454.375 394.695312 453.210938 393.695312 451.992188 C 392.695312 450.777344 391.757812 449.511719 390.882812 448.203125 C 390.007812 446.894531 389.199219 445.542969 388.457031 444.15625 C 387.714844 442.765625 387.042969 441.34375 386.441406 439.890625 C 385.835938 438.433594 385.308594 436.953125 384.851562 435.445312 C 384.394531 433.9375 384.011719 432.414062 383.703125 430.867188 C 383.398438 429.324219 383.164062 427.769531 383.011719 426.203125 C 382.855469 424.632812 382.78125 423.0625 382.78125 421.488281 C 382.78125 419.914062 382.855469 418.34375 383.011719 416.773438 C 383.164062 415.207031 383.398438 413.652344 383.703125 412.105469 C 384.011719 410.5625 384.394531 409.035156 384.851562 407.53125 C 385.308594 406.023438 385.835938 404.542969 386.441406 403.085938 C 387.042969 401.632812 387.714844 400.210938 388.457031 398.820312 C 389.199219 397.433594 390.007812 396.082031 390.882812 394.773438 C 391.757812 393.464844 392.695312 392.199219 393.695312 390.984375 C 394.695312 389.765625 395.75 388.601562 396.863281 387.488281 C 397.976562 386.375 399.144531 385.316406 400.359375 384.316406 C 401.578125 383.320312 402.839844 382.382812 404.148438 381.507812 C 405.460938 380.632812 406.808594 379.824219 408.199219 379.082031 C 409.585938 378.339844 411.007812 377.667969 412.464844 377.0625 C 413.917969 376.460938 415.398438 375.929688 416.90625 375.472656 C 418.414062 375.015625 419.9375 374.632812 421.484375 374.328125 C 423.027344 374.019531 424.585938 373.789062 426.152344 373.636719 C 427.71875 373.480469 429.289062 373.402344 430.863281 373.402344 C 432.441406 373.402344 434.011719 373.480469 435.578125 373.636719 C 437.144531 373.789062 438.699219 374.019531 440.246094 374.328125 C 441.789062 374.632812 443.316406 375.015625 444.824219 375.472656 C 446.328125 375.929688 447.8125 376.460938 449.265625 377.0625 C 450.722656 377.667969 452.144531 378.339844 453.53125 379.082031 C 454.921875 379.824219 456.269531 380.632812 457.578125 381.507812 C 458.886719 382.382812 460.152344 383.320312 461.371094 384.316406 C 462.585938 385.316406 463.753906 386.375 464.867188 387.488281 C 465.980469 388.601562 467.035156 389.765625 468.035156 390.984375 C 469.035156 392.199219 469.972656 393.464844 470.84375 394.773438 C 471.71875 396.082031 472.527344 397.433594 473.273438 398.820312 C 474.015625 400.210938 474.6875 401.632812 475.289062 403.085938 C 475.890625 404.542969 476.421875 406.023438 476.878906 407.53125 C 477.335938 409.035156 477.71875 410.5625 478.027344 412.105469 C 478.332031 413.652344 478.5625 415.207031 478.71875 416.773438 C 478.871094 418.34375 478.949219 419.914062 478.949219 421.488281 Z M 478.949219 421.488281 "/>
<path style=" stroke:none;fill-rule:nonzero;fill:rgb(10.198975%,45.098877%,90.979004%);fill-opacity:1;" d="M 248.144531 195.488281 C 248.144531 196.433594 248.097656 197.378906 248.003906 198.316406 C 247.910156 199.257812 247.773438 200.191406 247.589844 201.117188 C 247.402344 202.046875 247.175781 202.960938 246.902344 203.863281 C 246.625 204.769531 246.308594 205.65625 245.945312 206.53125 C 245.585938 207.402344 245.183594 208.257812 244.734375 209.089844 C 244.289062 209.921875 243.804688 210.734375 243.28125 211.519531 C 242.753906 212.304688 242.195312 213.0625 241.59375 213.792969 C 240.996094 214.523438 240.359375 215.222656 239.691406 215.890625 C 239.023438 216.558594 238.324219 217.191406 237.59375 217.792969 C 236.863281 218.390625 236.105469 218.953125 235.320312 219.480469 C 234.535156 220.003906 233.726562 220.488281 232.890625 220.933594 C 232.058594 221.378906 231.207031 221.785156 230.332031 222.144531 C 229.460938 222.507812 228.570312 222.824219 227.667969 223.097656 C 226.761719 223.371094 225.847656 223.601562 224.921875 223.785156 C 223.992188 223.972656 223.058594 224.109375 222.121094 224.203125 C 221.179688 224.292969 220.238281 224.339844 219.292969 224.339844 C 218.347656 224.339844 217.40625 224.292969 216.464844 224.203125 C 215.523438 224.109375 214.589844 223.972656 213.664062 223.785156 C 212.738281 223.601562 211.820312 223.371094 210.917969 223.097656 C 210.011719 222.824219 209.125 222.507812 208.25 222.144531 C 207.378906 221.785156 206.523438 221.378906 205.691406 220.933594 C 204.859375 220.488281 204.050781 220.003906 203.261719 219.480469 C 202.476562 218.953125 201.71875 218.390625 200.988281 217.792969 C 200.257812 217.191406 199.558594 216.558594 198.890625 215.890625 C 198.222656 215.222656 197.589844 214.523438 196.988281 213.792969 C 196.390625 213.0625 195.828125 212.304688 195.304688 211.519531 C 194.777344 210.734375 194.292969 209.921875 193.847656 209.089844 C 193.402344 208.257812 193 207.402344 192.636719 206.53125 C 192.277344 205.65625 191.957031 204.769531 191.683594 203.863281 C 191.410156 202.960938 191.179688 202.046875 190.996094 201.117188 C 190.8125 200.191406 190.671875 199.257812 190.582031 198.316406 C 190.488281 197.378906 190.441406 196.433594 190.441406 195.488281 C 190.441406 194.546875 190.488281 193.601562 190.582031 192.664062 C 190.671875 191.722656 190.8125 190.789062 190.996094 189.863281 C 191.179688 188.933594 191.410156 188.019531 191.683594 187.113281 C 191.957031 186.210938 192.277344 185.324219 192.636719 184.449219 C 193 183.578125 193.402344 182.722656 193.847656 181.890625 C 194.292969 181.058594 194.777344 180.246094 195.304688 179.460938 C 195.828125 178.675781 196.390625 177.917969 196.988281 177.1875 C 197.589844 176.457031 198.222656 175.757812 198.890625 175.089844 C 199.558594 174.421875 200.257812 173.789062 200.988281 173.1875 C 201.71875 172.589844 202.476562 172.027344 203.261719 171.5 C 204.050781 170.976562 204.859375 170.492188 205.691406 170.046875 C 206.523438 169.601562 207.378906 169.195312 208.25 168.835938 C 209.125 168.472656 210.011719 168.15625 210.917969 167.882812 C 211.820312 167.605469 212.738281 167.378906 213.664062 167.195312 C 214.589844 167.007812 215.523438 166.871094 216.464844 166.777344 C 217.40625 166.6875 218.347656 166.640625 219.292969 166.640625 C 220.238281 166.640625 221.179688 166.6875 222.121094 166.777344 C 223.058594 166.871094 223.992188 167.007812 224.921875 167.195312 C 225.847656 167.378906 226.761719 167.605469 227.667969 167.882812 C 228.570312 168.15625 229.460938 168.472656 230.332031 168.835938 C 231.207031 169.195312 232.058594 169.601562 232.890625 170.046875 C 233.726562 170.492188 234.535156 170.976562 235.320312 171.5 C 236.105469 172.027344 236.863281 172.589844 237.59375 173.1875 C 238.324219 173.789062 239.023438 174.421875 239.691406 175.089844 C 240.359375 175.757812 240.996094 176.457031 241.59375 177.1875 C 242.195312 177.917969 242.753906 178.675781 243.28125 179.460938 C 243.804688 180.246094 244.289062 181.058594 244.734375 181.890625 C 245.183594 182.722656 245.585938 183.578125 245.945312 184.449219 C 246.308594 185.324219 246.625 186.210938 246.902344 187.117188 C 247.175781 188.019531 247.402344 188.933594 247.589844 189.863281 C 247.773438 190.789062 247.910156 191.722656 248.003906 192.664062 C 248.097656 193.601562 248.144531 194.546875 248.144531 195.488281 Z M 248.144531 195.488281 "/>
<g clip-path="url(#clip1)" clip-rule="nonzero">
<path style=" stroke:none;fill-rule:nonzero;fill:rgb(10.198975%,45.098877%,90.979004%);fill-opacity:1;" d="M 305.421875 150.105469 L 315.269531 166.847656 C 350.683594 151.292969 389.765625 142.597656 430.863281 142.597656 C 472.835938 142.597656 512.699219 151.679688 548.703125 167.863281 L 558.558594 151.121094 C 519.648438 133.347656 476.433594 123.363281 430.863281 123.363281 C 386.171875 123.363281 343.742188 132.96875 305.421875 150.105469 Z M 305.421875 150.105469 "/>
</g>
<g clip-path="url(#clip2)" clip-rule="nonzero">
<path style=" stroke:none;fill-rule:nonzero;fill:rgb(10.198975%,45.098877%,90.979004%);fill-opacity:1;" d="M 257.761719 123.363281 L 180.824219 123.363281 C 175.535156 123.363281 169.015625 127.089844 166.332031 131.652344 L 127.996094 196.824219 C 125.316406 201.382812 125.316406 208.839844 127.996094 213.398438 L 166.332031 278.5625 C 169.015625 283.121094 175.535156 286.851562 180.824219 286.851562 L 257.761719 286.851562 C 263.046875 286.851562 269.570312 283.121094 272.25 278.5625 L 310.585938 213.398438 C 313.269531 208.839844 313.269531 201.382812 310.585938 196.824219 L 272.25 131.652344 C 269.570312 127.089844 263.046875 123.363281 257.761719 123.363281 Z M 268.152344 243.964844 C 264.945312 237.894531 260.050781 232.648438 254.058594 228.609375 C 245.296875 237.808594 232.964844 243.574219 219.292969 243.574219 C 205.617188 243.574219 193.292969 237.808594 184.53125 228.617188 C 178.636719 232.585938 173.8125 237.722656 170.601562 243.664062 L 145.4375 205.113281 L 182.210938 142.597656 L 256.375 142.597656 L 293.148438 205.113281 Z M 268.152344 243.964844 "/>
</g>
<g clip-path="url(#clip3)" clip-rule="nonzero">
<path style=" stroke:none;fill-rule:nonzero;fill:rgb(10.198975%,45.098877%,90.979004%);fill-opacity:1;" d="M 606.816406 286.851562 L 683.75 286.851562 C 689.039062 286.851562 695.5625 283.121094 698.242188 278.5625 L 736.578125 213.398438 C 739.257812 208.839844 739.257812 201.382812 736.578125 196.824219 L 698.242188 131.652344 C 695.5625 127.089844 689.039062 123.363281 683.75 123.363281 L 606.816406 123.363281 C 601.527344 123.363281 595.003906 127.089844 592.324219 131.652344 L 553.988281 196.824219 C 551.304688 201.382812 551.304688 208.839844 553.988281 213.398438 L 592.324219 278.5625 C 595.003906 283.121094 601.527344 286.851562 606.816406 286.851562 Z M 608.199219 142.597656 L 682.363281 142.597656 L 719.136719 205.113281 L 694.140625 243.964844 C 690.933594 237.894531 686.042969 232.648438 680.050781 228.609375 C 671.289062 237.808594 658.957031 243.574219 645.28125 243.574219 C 631.609375 243.574219 619.28125 237.808594 610.519531 228.617188 C 604.625 232.585938 599.804688 237.722656 596.59375 243.664062 L 571.425781 205.113281 Z M 608.199219 142.597656 "/>
</g>
<path style=" stroke:none;fill-rule:nonzero;fill:rgb(10.198975%,45.098877%,90.979004%);fill-opacity:1;" d="M 447.332031 272.746094 C 442.800781 270.011719 436.832031 268.644531 430.863281 268.644531 C 424.894531 268.644531 418.929688 270.011719 414.398438 272.746094 L 307.886719 337.019531 C 298.828125 342.488281 291.417969 355.609375 291.417969 366.191406 L 291.417969 496.027344 C 291.417969 506.609375 298.828125 519.734375 307.886719 525.199219 L 350.734375 551.054688 C 350.78125 551.082031 350.828125 551.113281 350.875 551.148438 C 355.648438 554.253906 361.089844 557.824219 366.820312 561.574219 C 368.246094 562.507812 369.691406 563.449219 371.152344 564.398438 C 372.128906 565.039062 373.082031 565.664062 374.070312 566.304688 C 376.328125 567.777344 378.609375 569.25 380.898438 570.730469 C 381.746094 571.273438 382.582031 571.808594 383.429688 572.355469 C 385.164062 573.472656 386.898438 574.574219 388.625 575.671875 C 389.449219 576.195312 390.269531 576.722656 391.085938 577.238281 C 393.453125 578.730469 395.792969 580.199219 398.089844 581.617188 C 398.636719 581.960938 399.167969 582.28125 399.707031 582.613281 C 401.578125 583.761719 403.398438 584.867188 405.179688 585.9375 C 405.84375 586.335938 406.507812 586.730469 407.164062 587.121094 C 409.386719 588.4375 411.550781 589.703125 413.578125 590.851562 C 417.5625 593.105469 424.808594 594.59375 431.800781 594.59375 C 436.941406 594.59375 441.945312 593.785156 445.402344 591.882812 C 451.363281 588.605469 458.5 584.296875 466.035156 579.542969 C 498.125 559.957031 553.84375 525.199219 553.84375 525.199219 C 562.898438 519.734375 570.308594 506.609375 570.308594 496.027344 L 570.308594 366.191406 C 570.308594 355.609375 562.898438 342.488281 553.84375 337.019531 Z M 551.078125 496.027344 C 551.078125 499.867188 547.1875 506.75 543.90625 508.730469 L 522.070312 521.90625 C 514.09375 502.484375 499.09375 484.980469 481.453125 473.574219 C 468.421875 486.605469 450.5625 494.671875 430.863281 494.671875 C 410.570312 494.671875 392.242188 486.09375 379.121094 472.363281 C 360.800781 483.273438 345.710938 500.636719 338.714844 521.335938 L 317.824219 508.730469 C 314.542969 506.75 310.652344 499.867188 310.652344 496.027344 L 310.652344 366.191406 C 310.652344 362.355469 314.542969 355.46875 317.824219 353.488281 L 424.332031 289.214844 C 425.15625 288.71875 427.457031 287.878906 430.863281 287.878906 C 434.273438 287.878906 436.574219 288.71875 437.398438 289.214844 L 543.90625 353.488281 C 547.1875 355.46875 551.078125 362.355469 551.078125 366.191406 Z M 551.078125 496.027344 "/>
<path style=" stroke:none;fill-rule:nonzero;fill:rgb(10.198975%,45.098877%,90.979004%);fill-opacity:1;" d="M 674.136719 195.488281 C 674.136719 196.433594 674.089844 197.378906 673.996094 198.316406 C 673.902344 199.257812 673.765625 200.191406 673.582031 201.117188 C 673.394531 202.046875 673.167969 202.960938 672.890625 203.863281 C 672.617188 204.769531 672.300781 205.65625 671.9375 206.53125 C 671.578125 207.402344 671.171875 208.257812 670.726562 209.089844 C 670.28125 209.921875 669.796875 210.734375 669.273438 211.519531 C 668.746094 212.304688 668.183594 213.0625 667.585938 213.792969 C 666.988281 214.523438 666.351562 215.222656 665.683594 215.890625 C 665.015625 216.558594 664.316406 217.191406 663.585938 217.792969 C 662.855469 218.390625 662.097656 218.953125 661.3125 219.480469 C 660.527344 220.003906 659.71875 220.488281 658.882812 220.933594 C 658.050781 221.378906 657.199219 221.785156 656.324219 222.144531 C 655.453125 222.507812 654.5625 222.824219 653.660156 223.097656 C 652.753906 223.371094 651.839844 223.601562 650.914062 223.785156 C 649.984375 223.972656 649.050781 224.109375 648.113281 224.203125 C 647.171875 224.292969 646.230469 224.339844 645.285156 224.339844 C 644.339844 224.339844 643.394531 224.292969 642.457031 224.203125 C 641.515625 224.109375 640.582031 223.972656 639.65625 223.785156 C 638.730469 223.601562 637.8125 223.371094 636.910156 223.097656 C 636.003906 222.824219 635.117188 222.507812 634.242188 222.144531 C 633.371094 221.785156 632.515625 221.378906 631.683594 220.933594 C 630.851562 220.488281 630.039062 220.003906 629.253906 219.480469 C 628.46875 218.953125 627.710938 218.390625 626.980469 217.792969 C 626.25 217.191406 625.550781 216.558594 624.882812 215.890625 C 624.214844 215.222656 623.582031 214.523438 622.980469 213.792969 C 622.382812 213.0625 621.820312 212.304688 621.296875 211.519531 C 620.769531 210.734375 620.285156 209.921875 619.839844 209.089844 C 619.394531 208.257812 618.992188 207.402344 618.628906 206.53125 C 618.269531 205.65625 617.949219 204.769531 617.675781 203.863281 C 617.402344 202.960938 617.171875 202.046875 616.988281 201.117188 C 616.804688 200.191406 616.664062 199.257812 616.570312 198.316406 C 616.480469 197.378906 616.433594 196.433594 616.433594 195.488281 C 616.433594 194.546875 616.480469 193.601562 616.570312 192.664062 C 616.664062 191.722656 616.804688 190.789062 616.988281 189.863281 C 617.171875 188.933594 617.402344 188.019531 617.675781 187.113281 C 617.949219 186.210938 618.269531 185.324219 618.628906 184.449219 C 618.992188 183.578125 619.394531 182.722656 619.839844 181.890625 C 620.285156 181.058594 620.769531 180.246094 621.296875 179.460938 C 621.820312 178.675781 622.382812 177.917969 622.980469 177.1875 C 623.582031 176.457031 624.214844 175.757812 624.882812 175.089844 C 625.550781 174.421875 626.25 173.789062 626.980469 173.1875 C 627.710938 172.589844 628.46875 172.027344 629.253906 171.5 C 630.039062 170.976562 630.851562 170.492188 631.683594 170.046875 C 632.515625 169.601562 633.371094 169.195312 634.242188 168.835938 C 635.117188 168.472656 636.003906 168.15625 636.910156 167.882812 C 637.8125 167.605469 638.730469 167.378906 639.65625 167.195312 C 640.582031 167.007812 641.515625 166.871094 642.457031 166.777344 C 643.394531 166.6875 644.339844 166.640625 645.285156 166.640625 C 646.230469 166.640625 647.171875 166.6875 648.113281 166.777344 C 649.050781 166.871094 649.984375 167.007812 650.914062 167.195312 C 651.839844 167.378906 652.753906 167.605469 653.660156 167.882812 C 654.5625 168.15625 655.453125 168.472656 656.324219 168.835938 C 657.199219 169.195312 658.050781 169.601562 658.882812 170.046875 C 659.71875 170.492188 660.527344 170.976562 661.3125 171.5 C 662.097656 172.027344 662.855469 172.589844 663.585938 173.1875 C 664.316406 173.789062 665.015625 174.421875 665.683594 175.089844 C 666.351562 175.757812 666.988281 176.457031 667.585938 177.1875 C 668.183594 177.917969 668.746094 178.675781 669.273438 179.460938 C 669.796875 180.246094 670.28125 181.058594 670.726562 181.890625 C 671.171875 182.722656 671.578125 183.578125 671.9375 184.449219 C 672.300781 185.324219 672.617188 186.210938 672.890625 187.117188 C 673.167969 188.019531 673.394531 188.933594 673.582031 189.863281 C 673.765625 190.789062 673.902344 191.722656 673.996094 192.664062 C 674.089844 193.601562 674.136719 194.546875 674.136719 195.488281 Z M 674.136719 195.488281 "/>
<path style=" stroke:none;fill-rule:nonzero;fill:rgb(10.198975%,45.098877%,90.979004%);fill-opacity:1;" d="M 310.585938 648.820312 L 272.25 583.648438 C 269.570312 579.085938 263.046875 575.359375 257.761719 575.359375 L 180.824219 575.359375 C 175.535156 575.359375 169.015625 579.085938 166.332031 583.648438 L 127.996094 648.820312 C 125.316406 653.378906 125.316406 660.835938 127.996094 665.394531 L 166.332031 730.558594 C 169.015625 735.117188 175.535156 738.847656 180.824219 738.847656 L 257.761719 738.847656 C 263.046875 738.847656 269.570312 735.117188 272.25 730.558594 L 310.585938 665.394531 C 313.269531 660.835938 313.269531 653.378906 310.585938 648.820312 Z M 268.152344 695.960938 C 264.945312 689.890625 260.050781 684.644531 254.058594 680.605469 C 245.296875 689.804688 232.964844 695.570312 219.292969 695.570312 C 205.617188 695.570312 193.292969 689.804688 184.53125 680.613281 C 178.636719 684.582031 173.8125 689.71875 170.601562 695.660156 L 145.4375 657.109375 L 182.210938 594.59375 L 256.375 594.59375 L 293.148438 657.109375 Z M 268.152344 695.960938 "/>
<path style=" stroke:none;fill-rule:nonzero;fill:rgb(10.198975%,45.098877%,90.979004%);fill-opacity:1;" d="M 248.144531 647.484375 C 248.144531 648.429688 248.097656 649.375 248.003906 650.3125 C 247.910156 651.253906 247.773438 652.1875 247.589844 653.113281 C 247.402344 654.042969 247.175781 654.957031 246.902344 655.859375 C 246.625 656.765625 246.308594 657.652344 245.945312 658.527344 C 245.585938 659.398438 245.183594 660.253906 244.734375 661.085938 C 244.289062 661.917969 243.804688 662.730469 243.28125 663.515625 C 242.753906 664.300781 242.195312 665.058594 241.59375 665.789062 C 240.996094 666.519531 240.359375 667.21875 239.691406 667.886719 C 239.023438 668.554688 238.324219 669.1875 237.59375 669.789062 C 236.863281 670.386719 236.105469 670.949219 235.320312 671.476562 C 234.535156 672 233.726562 672.484375 232.890625 672.929688 C 232.058594 673.375 231.207031 673.777344 230.332031 674.140625 C 229.460938 674.503906 228.570312 674.820312 227.667969 675.09375 C 226.761719 675.367188 225.847656 675.597656 224.921875 675.78125 C 223.992188 675.96875 223.058594 676.105469 222.121094 676.199219 C 221.179688 676.289062 220.238281 676.335938 219.292969 676.335938 C 218.347656 676.335938 217.40625 676.289062 216.464844 676.199219 C 215.523438 676.105469 214.589844 675.96875 213.664062 675.78125 C 212.738281 675.597656 211.820312 675.367188 210.917969 675.09375 C 210.011719 674.820312 209.125 674.503906 208.25 674.140625 C 207.378906 673.777344 206.523438 673.375 205.691406 672.929688 C 204.859375 672.484375 204.050781 672 203.261719 671.476562 C 202.476562 670.949219 201.71875 670.386719 200.988281 669.789062 C 200.257812 669.1875 199.558594 668.554688 198.890625 667.886719 C 198.222656 667.21875 197.589844 666.519531 196.988281 665.789062 C 196.390625 665.058594 195.828125 664.300781 195.304688 663.515625 C 194.777344 662.730469 194.292969 661.917969 193.847656 661.085938 C 193.402344 660.253906 193 659.398438 192.636719 658.527344 C 192.277344 657.652344 191.957031 656.765625 191.683594 655.859375 C 191.410156 654.957031 191.179688 654.042969 190.996094 653.113281 C 190.8125 652.1875 190.671875 651.253906 190.582031 650.3125 C 190.488281 649.375 190.441406 648.429688 190.441406 647.484375 C 190.441406 646.542969 190.488281 645.597656 190.582031 644.660156 C 190.671875 643.71875 190.8125 642.785156 190.996094 641.859375 C 191.179688 640.929688 191.410156 640.015625 191.683594 639.109375 C 191.957031 638.207031 192.277344 637.320312 192.636719 636.445312 C 193 635.574219 193.402344 634.71875 193.847656 633.886719 C 194.292969 633.050781 194.777344 632.242188 195.304688 631.457031 C 195.828125 630.671875 196.390625 629.914062 196.988281 629.183594 C 197.589844 628.453125 198.222656 627.753906 198.890625 627.085938 C 199.558594 626.417969 200.257812 625.785156 200.988281 625.183594 C 201.71875 624.585938 202.476562 624.023438 203.261719 623.496094 C 204.050781 622.972656 204.859375 622.488281 205.691406 622.042969 C 206.523438 621.597656 207.378906 621.191406 208.25 620.832031 C 209.125 620.46875 210.011719 620.152344 210.917969 619.878906 C 211.820312 619.601562 212.738281 619.375 213.664062 619.191406 C 214.589844 619.003906 215.523438 618.867188 216.464844 618.773438 C 217.40625 618.683594 218.347656 618.636719 219.292969 618.636719 C 220.238281 618.636719 221.179688 618.683594 222.121094 618.773438 C 223.058594 618.867188 223.992188 619.003906 224.921875 619.191406 C 225.847656 619.375 226.761719 619.601562 227.667969 619.878906 C 228.570312 620.152344 229.460938 620.46875 230.332031 620.832031 C 231.207031 621.191406 232.058594 621.597656 232.890625 622.042969 C 233.726562 622.488281 234.535156 622.972656 235.320312 623.496094 C 236.105469 624.023438 236.863281 624.585938 237.59375 625.183594 C 238.324219 625.785156 239.023438 626.417969 239.691406 627.085938 C 240.359375 627.753906 240.996094 628.453125 241.59375 629.183594 C 242.195312 629.914062 242.753906 630.671875 243.28125 631.457031 C 243.804688 632.242188 244.289062 633.050781 244.734375 633.886719 C 245.183594 634.71875 245.585938 635.574219 245.945312 636.445312 C 246.308594 637.320312 246.625 638.207031 246.902344 639.109375 C 247.175781 640.015625 247.402344 640.929688 247.589844 641.859375 C 247.773438 642.785156 247.910156 643.71875 248.003906 644.660156 C 248.097656 645.597656 248.144531 646.542969 248.144531 647.484375 Z M 248.144531 647.484375 "/>
<path style=" stroke:none;fill-rule:nonzero;fill:rgb(10.198975%,45.098877%,90.979004%);fill-opacity:1;" d="M 690.445312 305.296875 C 708.960938 343.339844 719.371094 386.027344 719.371094 431.105469 C 719.371094 476.183594 708.960938 518.871094 690.445312 556.914062 C 696.75 558.234375 702.820312 561.296875 707.726562 565.5625 C 727.496094 524.941406 738.605469 479.324219 738.605469 431.105469 C 738.605469 382.882812 727.496094 337.269531 707.726562 296.644531 C 702.820312 300.914062 696.75 303.976562 690.445312 305.296875 Z M 690.445312 305.296875 "/>
<path style=" stroke:none;fill-rule:nonzero;fill:rgb(10.198975%,45.098877%,90.979004%);fill-opacity:1;" d="M 698.242188 583.648438 C 695.5625 579.085938 689.039062 575.359375 683.75 575.359375 L 606.816406 575.359375 C 601.527344 575.359375 595.003906 579.085938 592.324219 583.648438 L 553.988281 648.820312 C 551.304688 653.378906 551.304688 660.835938 553.988281 665.394531 L 592.324219 730.558594 C 595.003906 735.117188 601.527344 738.847656 606.816406 738.847656 L 683.75 738.847656 C 689.039062 738.847656 695.5625 735.117188 698.242188 730.558594 L 736.578125 665.394531 C 739.257812 660.835938 739.257812 653.378906 736.578125 648.820312 Z M 694.140625 695.960938 C 690.933594 689.890625 686.042969 684.644531 680.050781 680.605469 C 671.289062 689.804688 658.957031 695.570312 645.28125 695.570312 C 631.609375 695.570312 619.28125 689.804688 610.519531 680.613281 C 604.625 684.582031 599.804688 689.71875 596.59375 695.660156 L 571.425781 657.109375 L 608.199219 594.59375 L 682.363281 594.59375 L 719.136719 657.109375 Z M 694.140625 695.960938 "/>
<path style=" stroke:none;fill-rule:nonzero;fill:rgb(10.198975%,45.098877%,90.979004%);fill-opacity:1;" d="M 674.136719 647.484375 C 674.136719 648.429688 674.089844 649.375 673.996094 650.3125 C 673.902344 651.253906 673.765625 652.1875 673.582031 653.113281 C 673.394531 654.042969 673.167969 654.957031 672.890625 655.859375 C 672.617188 656.765625 672.300781 657.652344 671.9375 658.527344 C 671.578125 659.398438 671.171875 660.253906 670.726562 661.085938 C 670.28125 661.917969 669.796875 662.730469 669.273438 663.515625 C 668.746094 664.300781 668.183594 665.058594 667.585938 665.789062 C 666.988281 666.519531 666.351562 667.21875 665.683594 667.886719 C 665.015625 668.554688 664.316406 669.1875 663.585938 669.789062 C 662.855469 670.386719 662.097656 670.949219 661.3125 671.476562 C 660.527344 672 659.71875 672.484375 658.882812 672.929688 C 658.050781 673.375 657.199219 673.777344 656.324219 674.140625 C 655.453125 674.503906 654.5625 674.820312 653.660156 675.09375 C 652.753906 675.367188 651.839844 675.597656 650.914062 675.78125 C 649.984375 675.96875 649.050781 676.105469 648.113281 676.199219 C 647.171875 676.289062 646.230469 676.335938 645.285156 676.335938 C 644.339844 676.335938 643.394531 676.289062 642.457031 676.199219 C 641.515625 676.105469 640.582031 675.96875 639.65625 675.78125 C 638.730469 675.597656 637.8125 675.367188 636.910156 675.09375 C 636.003906 674.820312 635.117188 674.503906 634.242188 674.140625 C 633.371094 673.777344 632.515625 673.375 631.683594 672.929688 C 630.851562 672.484375 630.039062 672 629.253906 671.476562 C 628.46875 670.949219 627.710938 670.386719 626.980469 669.789062 C 626.25 669.1875 625.550781 668.554688 624.882812 667.886719 C 624.214844 667.21875 623.582031 666.519531 622.980469 665.789062 C 622.382812 665.058594 621.820312 664.300781 621.296875 663.515625 C 620.769531 662.730469 620.285156 661.917969 619.839844 661.085938 C 619.394531 660.253906 618.992188 659.398438 618.628906 658.527344 C 618.269531 657.652344 617.949219 656.765625 617.675781 655.859375 C 617.402344 654.957031 617.171875 654.042969 616.988281 653.113281 C 616.804688 652.1875 616.664062 651.253906 616.570312 650.3125 C 616.480469 649.375 616.433594 648.429688 616.433594 647.484375 C 616.433594 646.542969 616.480469 645.597656 616.570312 644.660156 C 616.664062 643.71875 616.804688 642.785156 616.988281 641.859375 C 617.171875 640.929688 617.402344 640.015625 617.675781 639.109375 C 617.949219 638.207031 618.269531 637.320312 618.628906 636.445312 C 618.992188 635.574219 619.394531 634.71875 619.839844 633.886719 C 620.285156 633.050781 620.769531 632.242188 621.296875 631.457031 C 621.820312 630.671875 622.382812 629.914062 622.980469 629.183594 C 623.582031 628.453125 624.214844 627.753906 624.882812 627.085938 C 625.550781 626.417969 626.25 625.785156 626.980469 625.183594 C 627.710938 624.585938 628.46875 624.023438 629.253906 623.496094 C 630.039062 622.972656 630.851562 622.488281 631.683594 622.042969 C 632.515625 621.597656 633.371094 621.191406 634.242188 620.832031 C 635.117188 620.46875 636.003906 620.152344 636.910156 619.878906 C 637.8125 619.601562 638.730469 619.375 639.65625 619.191406 C 640.582031 619.003906 641.515625 618.867188 642.457031 618.773438 C 643.394531 618.683594 644.339844 618.636719 645.285156 618.636719 C 646.230469 618.636719 647.171875 618.683594 648.113281 618.773438 C 649.050781 618.867188 649.984375 619.003906 650.914062 619.191406 C 651.839844 619.375 652.753906 619.601562 653.660156 619.878906 C 654.5625 620.152344 655.453125 620.46875 656.324219 620.832031 C 657.199219 621.191406 658.050781 621.597656 658.882812 622.042969 C 659.71875 622.488281 660.527344 622.972656 661.3125 623.496094 C 662.097656 624.023438 662.855469 624.585938 663.585938 625.183594 C 664.316406 625.785156 665.015625 626.417969 665.683594 627.085938 C 666.351562 627.753906 666.988281 628.453125 667.585938 629.183594 C 668.183594 629.914062 668.746094 630.671875 669.273438 631.457031 C 669.796875 632.242188 670.28125 633.050781 670.726562 633.886719 C 671.171875 634.71875 671.578125 635.574219 671.9375 636.445312 C 672.300781 637.320312 672.617188 638.207031 672.890625 639.109375 C 673.167969 640.015625 673.394531 640.929688 673.582031 641.859375 C 673.765625 642.785156 673.902344 643.71875 673.996094 644.660156 C 674.089844 645.597656 674.136719 646.542969 674.136719 647.484375 Z M 674.136719 647.484375 "/>
<g clip-path="url(#clip4)" clip-rule="nonzero">
<path style=" stroke:none;fill-rule:nonzero;fill:rgb(10.198975%,45.098877%,90.979004%);fill-opacity:1;" d="M 154.914062 567.34375 C 159.472656 562.765625 165.34375 559.269531 171.574219 557.480469 C 152.882812 519.292969 142.355469 476.410156 142.355469 431.105469 C 142.355469 385.800781 152.882812 342.917969 171.574219 304.726562 C 165.34375 302.9375 159.472656 299.445312 154.914062 294.867188 C 134.59375 335.941406 123.121094 382.175781 123.121094 431.105469 C 123.121094 480.035156 134.59375 526.265625 154.914062 567.34375 Z M 154.914062 567.34375 "/>
</g>
<path style=" stroke:none;fill-rule:nonzero;fill:rgb(10.198975%,45.098877%,90.979004%);fill-opacity:1;" d="M 430.863281 719.613281 C 389.773438 719.613281 350.6875 710.917969 315.273438 695.363281 L 305.421875 712.105469 C 343.742188 729.238281 386.171875 738.847656 430.863281 738.847656 C 476.433594 738.847656 519.648438 728.863281 558.558594 711.089844 L 548.703125 694.34375 C 512.699219 710.53125 472.835938 719.613281 430.863281 719.613281 Z M 430.863281 719.613281 "/>
</g>
</svg>
